G04 PROTEUS RS274X GERBER FILE*
%FSLAX45Y45*%
%MOMM*%
G01*
%ADD21C,0.203200*%
%ADD25C,0.127000*%
%ADD51C,0.063500*%
D21*
X+6165099Y+7230801D02*
X+6254901Y+7140999D01*
X+6165099Y+7140999D02*
X+6254901Y+7230801D01*
X+6735827Y+7225451D02*
X+6825629Y+7135649D01*
X+6735827Y+7135649D02*
X+6825629Y+7225451D01*
X+7191982Y+6371018D02*
X+7281784Y+6281216D01*
X+7191982Y+6281216D02*
X+7281784Y+6371018D01*
X+7194749Y+5474548D02*
X+7284551Y+5384746D01*
X+7194749Y+5384746D02*
X+7284551Y+5474548D01*
X+6528829Y+5223862D02*
X+6618631Y+5134060D01*
X+6528829Y+5134060D02*
X+6618631Y+5223862D01*
X+8397885Y+5223862D02*
X+8487687Y+5134060D01*
X+8397885Y+5134060D02*
X+8487687Y+5223862D01*
X+6363756Y+6256900D02*
X+6453558Y+6167098D01*
X+6363756Y+6167098D02*
X+6453558Y+6256900D01*
X+2540444Y+6256901D02*
X+2630246Y+6167099D01*
X+2540444Y+6167099D02*
X+2630246Y+6256901D01*
X+2588781Y+4952181D02*
X+2678583Y+4862379D01*
X+2588781Y+4862379D02*
X+2678583Y+4952181D01*
X+2588781Y+4410172D02*
X+2678583Y+4320370D01*
X+2588781Y+4320370D02*
X+2678583Y+4410172D01*
X+1812967Y+3496200D02*
X+1902769Y+3406398D01*
X+1812967Y+3406398D02*
X+1902769Y+3496200D01*
X+1387862Y+3501514D02*
X+1477664Y+3411712D01*
X+1387862Y+3411712D02*
X+1477664Y+3501514D01*
X+1387862Y+3846911D02*
X+1477664Y+3757109D01*
X+1387862Y+3757109D02*
X+1477664Y+3846911D01*
X+1382548Y+4266702D02*
X+1472350Y+4176900D01*
X+1382548Y+4176900D02*
X+1472350Y+4266702D01*
X+1223134Y+4282642D02*
X+1312936Y+4192840D01*
X+1223134Y+4192840D02*
X+1312936Y+4282642D01*
X+851168Y+4282642D02*
X+940970Y+4192840D01*
X+851168Y+4192840D02*
X+940970Y+4282642D01*
X+605099Y+5690801D02*
X+694901Y+5600999D01*
X+605099Y+5600999D02*
X+694901Y+5690801D01*
X+2838531Y+5690801D02*
X+2928333Y+5600999D01*
X+2838531Y+5600999D02*
X+2928333Y+5690801D01*
X+4027099Y+2120801D02*
X+4116901Y+2030999D01*
X+4027099Y+2030999D02*
X+4116901Y+2120801D01*
X+4448132Y+2125048D02*
X+4537934Y+2035246D01*
X+4448132Y+2035246D02*
X+4537934Y+2125048D01*
X+2728049Y+1545874D02*
X+2817851Y+1456072D01*
X+2728049Y+1456072D02*
X+2817851Y+1545874D01*
X+2397744Y+1540802D02*
X+2487546Y+1451000D01*
X+2397744Y+1451000D02*
X+2487546Y+1540802D01*
X+2728049Y+1022522D02*
X+2817851Y+932720D01*
X+2728049Y+932720D02*
X+2817851Y+1022522D01*
X+4067830Y+792246D02*
X+4157632Y+702444D01*
X+4067830Y+702444D02*
X+4157632Y+792246D01*
X+5261072Y+792245D02*
X+5350874Y+702443D01*
X+5261072Y+702443D02*
X+5350874Y+792245D01*
X+4974973Y+963207D02*
X+5064775Y+873405D01*
X+4974973Y+873405D02*
X+5064775Y+963207D01*
X+4971484Y+1751723D02*
X+5061286Y+1661921D01*
X+4971484Y+1661921D02*
X+5061286Y+1751723D01*
X+7194749Y+1925153D02*
X+7284551Y+1835351D01*
X+7194749Y+1835351D02*
X+7284551Y+1925153D01*
X+7191982Y+2821623D02*
X+7281784Y+2731821D01*
X+7191982Y+2731821D02*
X+7281784Y+2821623D01*
X+1645541Y+1540802D02*
X+1735343Y+1451000D01*
X+1645541Y+1451000D02*
X+1735343Y+1540802D01*
X+1265099Y+1720801D02*
X+1354901Y+1630999D01*
X+1265099Y+1630999D02*
X+1354901Y+1720801D01*
X+1265099Y+2162243D02*
X+1354901Y+2072441D01*
X+1265099Y+2072441D02*
X+1354901Y+2162243D01*
X+1719500Y+3675900D02*
X+1719283Y+3681147D01*
X+1717518Y+3691642D01*
X+1713826Y+3702137D01*
X+1707798Y+3712632D01*
X+1698576Y+3723012D01*
X+1688081Y+3730700D01*
X+1677586Y+3735618D01*
X+1667091Y+3738424D01*
X+1656596Y+3739397D01*
X+1656000Y+3739400D01*
X+1592500Y+3675900D02*
X+1592717Y+3681147D01*
X+1594482Y+3691642D01*
X+1598174Y+3702137D01*
X+1604202Y+3712632D01*
X+1613424Y+3723012D01*
X+1623919Y+3730700D01*
X+1634414Y+3735618D01*
X+1644909Y+3738424D01*
X+1655404Y+3739397D01*
X+1656000Y+3739400D01*
X+1592500Y+3675900D02*
X+1592717Y+3670653D01*
X+1594482Y+3660158D01*
X+1598174Y+3649663D01*
X+1604202Y+3639168D01*
X+1613424Y+3628788D01*
X+1623919Y+3621100D01*
X+1634414Y+3616182D01*
X+1644909Y+3613376D01*
X+1655404Y+3612403D01*
X+1656000Y+3612400D01*
X+1719500Y+3675900D02*
X+1719283Y+3670653D01*
X+1717518Y+3660158D01*
X+1713826Y+3649663D01*
X+1707798Y+3639168D01*
X+1698576Y+3628788D01*
X+1688081Y+3621100D01*
X+1677586Y+3616182D01*
X+1667091Y+3613376D01*
X+1656596Y+3612403D01*
X+1656000Y+3612400D01*
X+1611099Y+3720801D02*
X+1700901Y+3630999D01*
X+1611099Y+3630999D02*
X+1700901Y+3720801D01*
X+1973500Y+3675900D02*
X+1973283Y+3681147D01*
X+1971518Y+3691642D01*
X+1967826Y+3702137D01*
X+1961798Y+3712632D01*
X+1952576Y+3723012D01*
X+1942081Y+3730700D01*
X+1931586Y+3735618D01*
X+1921091Y+3738424D01*
X+1910596Y+3739397D01*
X+1910000Y+3739400D01*
X+1846500Y+3675900D02*
X+1846717Y+3681147D01*
X+1848482Y+3691642D01*
X+1852174Y+3702137D01*
X+1858202Y+3712632D01*
X+1867424Y+3723012D01*
X+1877919Y+3730700D01*
X+1888414Y+3735618D01*
X+1898909Y+3738424D01*
X+1909404Y+3739397D01*
X+1910000Y+3739400D01*
X+1846500Y+3675900D02*
X+1846717Y+3670653D01*
X+1848482Y+3660158D01*
X+1852174Y+3649663D01*
X+1858202Y+3639168D01*
X+1867424Y+3628788D01*
X+1877919Y+3621100D01*
X+1888414Y+3616182D01*
X+1898909Y+3613376D01*
X+1909404Y+3612403D01*
X+1910000Y+3612400D01*
X+1973500Y+3675900D02*
X+1973283Y+3670653D01*
X+1971518Y+3660158D01*
X+1967826Y+3649663D01*
X+1961798Y+3639168D01*
X+1952576Y+3628788D01*
X+1942081Y+3621100D01*
X+1931586Y+3616182D01*
X+1921091Y+3613376D01*
X+1910596Y+3612403D01*
X+1910000Y+3612400D01*
X+1865099Y+3720801D02*
X+1954901Y+3630999D01*
X+1865099Y+3630999D02*
X+1954901Y+3720801D01*
X+2227500Y+3675900D02*
X+2227283Y+3681147D01*
X+2225518Y+3691642D01*
X+2221826Y+3702137D01*
X+2215798Y+3712632D01*
X+2206576Y+3723012D01*
X+2196081Y+3730700D01*
X+2185586Y+3735618D01*
X+2175091Y+3738424D01*
X+2164596Y+3739397D01*
X+2164000Y+3739400D01*
X+2100500Y+3675900D02*
X+2100717Y+3681147D01*
X+2102482Y+3691642D01*
X+2106174Y+3702137D01*
X+2112202Y+3712632D01*
X+2121424Y+3723012D01*
X+2131919Y+3730700D01*
X+2142414Y+3735618D01*
X+2152909Y+3738424D01*
X+2163404Y+3739397D01*
X+2164000Y+3739400D01*
X+2100500Y+3675900D02*
X+2100717Y+3670653D01*
X+2102482Y+3660158D01*
X+2106174Y+3649663D01*
X+2112202Y+3639168D01*
X+2121424Y+3628788D01*
X+2131919Y+3621100D01*
X+2142414Y+3616182D01*
X+2152909Y+3613376D01*
X+2163404Y+3612403D01*
X+2164000Y+3612400D01*
X+2227500Y+3675900D02*
X+2227283Y+3670653D01*
X+2225518Y+3660158D01*
X+2221826Y+3649663D01*
X+2215798Y+3639168D01*
X+2206576Y+3628788D01*
X+2196081Y+3621100D01*
X+2185586Y+3616182D01*
X+2175091Y+3613376D01*
X+2164596Y+3612403D01*
X+2164000Y+3612400D01*
X+2119099Y+3720801D02*
X+2208901Y+3630999D01*
X+2119099Y+3630999D02*
X+2208901Y+3720801D01*
X+2510000Y+3739400D02*
X+2510000Y+3612400D01*
X+2446500Y+3675900D02*
X+2573500Y+3675900D01*
X+2465099Y+3720801D02*
X+2554901Y+3630999D01*
X+2465099Y+3630999D02*
X+2554901Y+3720801D01*
X+2764000Y+3739400D02*
X+2764000Y+3612400D01*
X+2700500Y+3675900D02*
X+2827500Y+3675900D01*
X+2719099Y+3720801D02*
X+2808901Y+3630999D01*
X+2719099Y+3630999D02*
X+2808901Y+3720801D01*
X+2510000Y+3039400D02*
X+2510000Y+2912400D01*
X+2446500Y+2975900D02*
X+2573500Y+2975900D01*
X+2465099Y+3020801D02*
X+2554901Y+2930999D01*
X+2465099Y+2930999D02*
X+2554901Y+3020801D01*
X+2764000Y+3039400D02*
X+2764000Y+2912400D01*
X+2700500Y+2975900D02*
X+2827500Y+2975900D01*
X+2719099Y+3020801D02*
X+2808901Y+2930999D01*
X+2719099Y+2930999D02*
X+2808901Y+3020801D01*
X+973500Y+3675900D02*
X+973283Y+3681147D01*
X+971518Y+3691642D01*
X+967826Y+3702137D01*
X+961798Y+3712632D01*
X+952576Y+3723012D01*
X+942081Y+3730700D01*
X+931586Y+3735618D01*
X+921091Y+3738424D01*
X+910596Y+3739397D01*
X+910000Y+3739400D01*
X+846500Y+3675900D02*
X+846717Y+3681147D01*
X+848482Y+3691642D01*
X+852174Y+3702137D01*
X+858202Y+3712632D01*
X+867424Y+3723012D01*
X+877919Y+3730700D01*
X+888414Y+3735618D01*
X+898909Y+3738424D01*
X+909404Y+3739397D01*
X+910000Y+3739400D01*
X+846500Y+3675900D02*
X+846717Y+3670653D01*
X+848482Y+3660158D01*
X+852174Y+3649663D01*
X+858202Y+3639168D01*
X+867424Y+3628788D01*
X+877919Y+3621100D01*
X+888414Y+3616182D01*
X+898909Y+3613376D01*
X+909404Y+3612403D01*
X+910000Y+3612400D01*
X+973500Y+3675900D02*
X+973283Y+3670653D01*
X+971518Y+3660158D01*
X+967826Y+3649663D01*
X+961798Y+3639168D01*
X+952576Y+3628788D01*
X+942081Y+3621100D01*
X+931586Y+3616182D01*
X+921091Y+3613376D01*
X+910596Y+3612403D01*
X+910000Y+3612400D01*
X+910000Y+3739400D02*
X+910000Y+3612400D01*
X+846500Y+3675900D02*
X+973500Y+3675900D01*
X+973283Y+3681147D01*
X+971518Y+3691642D01*
X+967826Y+3702137D01*
X+961798Y+3712632D01*
X+952576Y+3723012D01*
X+942081Y+3730700D01*
X+931586Y+3735618D01*
X+921091Y+3738424D01*
X+910596Y+3739397D01*
X+910000Y+3739400D01*
X+846500Y+3675900D02*
X+846717Y+3681147D01*
X+848482Y+3691642D01*
X+852174Y+3702137D01*
X+858202Y+3712632D01*
X+867424Y+3723012D01*
X+877919Y+3730700D01*
X+888414Y+3735618D01*
X+898909Y+3738424D01*
X+909404Y+3739397D01*
X+910000Y+3739400D01*
X+846500Y+3675900D02*
X+846717Y+3670653D01*
X+848482Y+3660158D01*
X+852174Y+3649663D01*
X+858202Y+3639168D01*
X+867424Y+3628788D01*
X+877919Y+3621100D01*
X+888414Y+3616182D01*
X+898909Y+3613376D01*
X+909404Y+3612403D01*
X+910000Y+3612400D01*
X+973500Y+3675900D02*
X+973283Y+3670653D01*
X+971518Y+3660158D01*
X+967826Y+3649663D01*
X+961798Y+3639168D01*
X+952576Y+3628788D01*
X+942081Y+3621100D01*
X+931586Y+3616182D01*
X+921091Y+3613376D01*
X+910596Y+3612403D01*
X+910000Y+3612400D01*
X+865099Y+3720801D02*
X+954901Y+3630999D01*
X+865099Y+3630999D02*
X+954901Y+3720801D01*
X+973500Y+3175520D02*
X+973283Y+3180767D01*
X+971518Y+3191262D01*
X+967826Y+3201757D01*
X+961798Y+3212252D01*
X+952576Y+3222632D01*
X+942081Y+3230320D01*
X+931586Y+3235238D01*
X+921091Y+3238044D01*
X+910596Y+3239017D01*
X+910000Y+3239020D01*
X+846500Y+3175520D02*
X+846717Y+3180767D01*
X+848482Y+3191262D01*
X+852174Y+3201757D01*
X+858202Y+3212252D01*
X+867424Y+3222632D01*
X+877919Y+3230320D01*
X+888414Y+3235238D01*
X+898909Y+3238044D01*
X+909404Y+3239017D01*
X+910000Y+3239020D01*
X+846500Y+3175520D02*
X+846717Y+3170273D01*
X+848482Y+3159778D01*
X+852174Y+3149283D01*
X+858202Y+3138788D01*
X+867424Y+3128408D01*
X+877919Y+3120720D01*
X+888414Y+3115802D01*
X+898909Y+3112996D01*
X+909404Y+3112023D01*
X+910000Y+3112020D01*
X+973500Y+3175520D02*
X+973283Y+3170273D01*
X+971518Y+3159778D01*
X+967826Y+3149283D01*
X+961798Y+3138788D01*
X+952576Y+3128408D01*
X+942081Y+3120720D01*
X+931586Y+3115802D01*
X+921091Y+3112996D01*
X+910596Y+3112023D01*
X+910000Y+3112020D01*
X+910000Y+3239020D02*
X+910000Y+3112020D01*
X+846500Y+3175520D02*
X+973500Y+3175520D01*
X+973283Y+3180767D01*
X+971518Y+3191262D01*
X+967826Y+3201757D01*
X+961798Y+3212252D01*
X+952576Y+3222632D01*
X+942081Y+3230320D01*
X+931586Y+3235238D01*
X+921091Y+3238044D01*
X+910596Y+3239017D01*
X+910000Y+3239020D01*
X+846500Y+3175520D02*
X+846717Y+3180767D01*
X+848482Y+3191262D01*
X+852174Y+3201757D01*
X+858202Y+3212252D01*
X+867424Y+3222632D01*
X+877919Y+3230320D01*
X+888414Y+3235238D01*
X+898909Y+3238044D01*
X+909404Y+3239017D01*
X+910000Y+3239020D01*
X+846500Y+3175520D02*
X+846717Y+3170273D01*
X+848482Y+3159778D01*
X+852174Y+3149283D01*
X+858202Y+3138788D01*
X+867424Y+3128408D01*
X+877919Y+3120720D01*
X+888414Y+3115802D01*
X+898909Y+3112996D01*
X+909404Y+3112023D01*
X+910000Y+3112020D01*
X+973500Y+3175520D02*
X+973283Y+3170273D01*
X+971518Y+3159778D01*
X+967826Y+3149283D01*
X+961798Y+3138788D01*
X+952576Y+3128408D01*
X+942081Y+3120720D01*
X+931586Y+3115802D01*
X+921091Y+3112996D01*
X+910596Y+3112023D01*
X+910000Y+3112020D01*
X+865099Y+3220421D02*
X+954901Y+3130619D01*
X+865099Y+3130619D02*
X+954901Y+3220421D01*
X+1710000Y+2323400D02*
X+1710000Y+2196400D01*
X+1646500Y+2259900D02*
X+1773500Y+2259900D01*
X+1665099Y+2304801D02*
X+1754901Y+2214999D01*
X+1665099Y+2214999D02*
X+1754901Y+2304801D01*
X+1710000Y+3339400D02*
X+1710000Y+3212400D01*
X+1646500Y+3275900D02*
X+1773500Y+3275900D01*
X+1665099Y+3320801D02*
X+1754901Y+3230999D01*
X+1665099Y+3230999D02*
X+1754901Y+3320801D01*
X+2110000Y+3339400D02*
X+2110000Y+3212400D01*
X+2046500Y+3275900D02*
X+2173500Y+3275900D01*
X+2065099Y+3320801D02*
X+2154901Y+3230999D01*
X+2065099Y+3230999D02*
X+2154901Y+3320801D01*
X+2110000Y+2323400D02*
X+2110000Y+2196400D01*
X+2046500Y+2259900D02*
X+2173500Y+2259900D01*
X+2065099Y+2304801D02*
X+2154901Y+2214999D01*
X+2065099Y+2214999D02*
X+2154901Y+2304801D01*
X+6873500Y+6129900D02*
X+6873283Y+6135147D01*
X+6871518Y+6145642D01*
X+6867826Y+6156137D01*
X+6861798Y+6166632D01*
X+6852576Y+6177012D01*
X+6842081Y+6184700D01*
X+6831586Y+6189618D01*
X+6821091Y+6192424D01*
X+6810596Y+6193397D01*
X+6810000Y+6193400D01*
X+6746500Y+6129900D02*
X+6746717Y+6135147D01*
X+6748482Y+6145642D01*
X+6752174Y+6156137D01*
X+6758202Y+6166632D01*
X+6767424Y+6177012D01*
X+6777919Y+6184700D01*
X+6788414Y+6189618D01*
X+6798909Y+6192424D01*
X+6809404Y+6193397D01*
X+6810000Y+6193400D01*
X+6746500Y+6129900D02*
X+6746717Y+6124653D01*
X+6748482Y+6114158D01*
X+6752174Y+6103663D01*
X+6758202Y+6093168D01*
X+6767424Y+6082788D01*
X+6777919Y+6075100D01*
X+6788414Y+6070182D01*
X+6798909Y+6067376D01*
X+6809404Y+6066403D01*
X+6810000Y+6066400D01*
X+6873500Y+6129900D02*
X+6873283Y+6124653D01*
X+6871518Y+6114158D01*
X+6867826Y+6103663D01*
X+6861798Y+6093168D01*
X+6852576Y+6082788D01*
X+6842081Y+6075100D01*
X+6831586Y+6070182D01*
X+6821091Y+6067376D01*
X+6810596Y+6066403D01*
X+6810000Y+6066400D01*
X+6765099Y+6174801D02*
X+6854901Y+6084999D01*
X+6765099Y+6084999D02*
X+6854901Y+6174801D01*
X+6873500Y+5875900D02*
X+6873283Y+5881147D01*
X+6871518Y+5891642D01*
X+6867826Y+5902137D01*
X+6861798Y+5912632D01*
X+6852576Y+5923012D01*
X+6842081Y+5930700D01*
X+6831586Y+5935618D01*
X+6821091Y+5938424D01*
X+6810596Y+5939397D01*
X+6810000Y+5939400D01*
X+6746500Y+5875900D02*
X+6746717Y+5881147D01*
X+6748482Y+5891642D01*
X+6752174Y+5902137D01*
X+6758202Y+5912632D01*
X+6767424Y+5923012D01*
X+6777919Y+5930700D01*
X+6788414Y+5935618D01*
X+6798909Y+5938424D01*
X+6809404Y+5939397D01*
X+6810000Y+5939400D01*
X+6746500Y+5875900D02*
X+6746717Y+5870653D01*
X+6748482Y+5860158D01*
X+6752174Y+5849663D01*
X+6758202Y+5839168D01*
X+6767424Y+5828788D01*
X+6777919Y+5821100D01*
X+6788414Y+5816182D01*
X+6798909Y+5813376D01*
X+6809404Y+5812403D01*
X+6810000Y+5812400D01*
X+6873500Y+5875900D02*
X+6873283Y+5870653D01*
X+6871518Y+5860158D01*
X+6867826Y+5849663D01*
X+6861798Y+5839168D01*
X+6852576Y+5828788D01*
X+6842081Y+5821100D01*
X+6831586Y+5816182D01*
X+6821091Y+5813376D01*
X+6810596Y+5812403D01*
X+6810000Y+5812400D01*
X+6765099Y+5920801D02*
X+6854901Y+5830999D01*
X+6765099Y+5830999D02*
X+6854901Y+5920801D01*
X+6873500Y+5621900D02*
X+6873283Y+5627147D01*
X+6871518Y+5637642D01*
X+6867826Y+5648137D01*
X+6861798Y+5658632D01*
X+6852576Y+5669012D01*
X+6842081Y+5676700D01*
X+6831586Y+5681618D01*
X+6821091Y+5684424D01*
X+6810596Y+5685397D01*
X+6810000Y+5685400D01*
X+6746500Y+5621900D02*
X+6746717Y+5627147D01*
X+6748482Y+5637642D01*
X+6752174Y+5648137D01*
X+6758202Y+5658632D01*
X+6767424Y+5669012D01*
X+6777919Y+5676700D01*
X+6788414Y+5681618D01*
X+6798909Y+5684424D01*
X+6809404Y+5685397D01*
X+6810000Y+5685400D01*
X+6746500Y+5621900D02*
X+6746717Y+5616653D01*
X+6748482Y+5606158D01*
X+6752174Y+5595663D01*
X+6758202Y+5585168D01*
X+6767424Y+5574788D01*
X+6777919Y+5567100D01*
X+6788414Y+5562182D01*
X+6798909Y+5559376D01*
X+6809404Y+5558403D01*
X+6810000Y+5558400D01*
X+6873500Y+5621900D02*
X+6873283Y+5616653D01*
X+6871518Y+5606158D01*
X+6867826Y+5595663D01*
X+6861798Y+5585168D01*
X+6852576Y+5574788D01*
X+6842081Y+5567100D01*
X+6831586Y+5562182D01*
X+6821091Y+5559376D01*
X+6810596Y+5558403D01*
X+6810000Y+5558400D01*
X+6765099Y+5666801D02*
X+6854901Y+5576999D01*
X+6765099Y+5576999D02*
X+6854901Y+5666801D01*
X+7910000Y+7045800D02*
X+7910000Y+6918800D01*
X+7846500Y+6982300D02*
X+7973500Y+6982300D01*
X+7865099Y+7027201D02*
X+7954901Y+6937399D01*
X+7865099Y+6937399D02*
X+7954901Y+7027201D01*
X+7910000Y+6842600D02*
X+7910000Y+6715600D01*
X+7846500Y+6779100D02*
X+7973500Y+6779100D01*
X+7865099Y+6824001D02*
X+7954901Y+6734199D01*
X+7865099Y+6734199D02*
X+7954901Y+6824001D01*
X+7910000Y+6639400D02*
X+7910000Y+6512400D01*
X+7846500Y+6575900D02*
X+7973500Y+6575900D01*
X+7865099Y+6620801D02*
X+7954901Y+6530999D01*
X+7865099Y+6530999D02*
X+7954901Y+6620801D01*
X+7410000Y+6639400D02*
X+7410000Y+6512400D01*
X+7346500Y+6575900D02*
X+7473500Y+6575900D01*
X+7365099Y+6620801D02*
X+7454901Y+6530999D01*
X+7365099Y+6530999D02*
X+7454901Y+6620801D01*
X+6394000Y+6639400D02*
X+6394000Y+6512400D01*
X+6330500Y+6575900D02*
X+6457500Y+6575900D01*
X+6349099Y+6620801D02*
X+6438901Y+6530999D01*
X+6349099Y+6530999D02*
X+6438901Y+6620801D01*
X+7426000Y+6939400D02*
X+7426000Y+6812400D01*
X+7362500Y+6875900D02*
X+7489500Y+6875900D01*
X+7381099Y+6920801D02*
X+7470901Y+6830999D01*
X+7381099Y+6830999D02*
X+7470901Y+6920801D01*
X+6410000Y+6939400D02*
X+6410000Y+6812400D01*
X+6346500Y+6875900D02*
X+6473500Y+6875900D01*
X+6365099Y+6920801D02*
X+6454901Y+6830999D01*
X+6365099Y+6830999D02*
X+6454901Y+6920801D01*
X+6710000Y+5055400D02*
X+6710000Y+4928400D01*
X+6646500Y+4991900D02*
X+6773500Y+4991900D01*
X+6665099Y+5036801D02*
X+6754901Y+4946999D01*
X+6665099Y+4946999D02*
X+6754901Y+5036801D01*
X+6710000Y+4039400D02*
X+6710000Y+3912400D01*
X+6646500Y+3975900D02*
X+6773500Y+3975900D01*
X+6665099Y+4020801D02*
X+6754901Y+3930999D01*
X+6665099Y+3930999D02*
X+6754901Y+4020801D01*
X+7273500Y+4021900D02*
X+7273283Y+4027147D01*
X+7271518Y+4037642D01*
X+7267826Y+4048137D01*
X+7261798Y+4058632D01*
X+7252576Y+4069012D01*
X+7242081Y+4076700D01*
X+7231586Y+4081618D01*
X+7221091Y+4084424D01*
X+7210596Y+4085397D01*
X+7210000Y+4085400D01*
X+7146500Y+4021900D02*
X+7146717Y+4027147D01*
X+7148482Y+4037642D01*
X+7152174Y+4048137D01*
X+7158202Y+4058632D01*
X+7167424Y+4069012D01*
X+7177919Y+4076700D01*
X+7188414Y+4081618D01*
X+7198909Y+4084424D01*
X+7209404Y+4085397D01*
X+7210000Y+4085400D01*
X+7146500Y+4021900D02*
X+7146717Y+4016653D01*
X+7148482Y+4006158D01*
X+7152174Y+3995663D01*
X+7158202Y+3985168D01*
X+7167424Y+3974788D01*
X+7177919Y+3967100D01*
X+7188414Y+3962182D01*
X+7198909Y+3959376D01*
X+7209404Y+3958403D01*
X+7210000Y+3958400D01*
X+7273500Y+4021900D02*
X+7273283Y+4016653D01*
X+7271518Y+4006158D01*
X+7267826Y+3995663D01*
X+7261798Y+3985168D01*
X+7252576Y+3974788D01*
X+7242081Y+3967100D01*
X+7231586Y+3962182D01*
X+7221091Y+3959376D01*
X+7210596Y+3958403D01*
X+7210000Y+3958400D01*
X+7165099Y+4066801D02*
X+7254901Y+3976999D01*
X+7165099Y+3976999D02*
X+7254901Y+4066801D01*
X+7273500Y+4275900D02*
X+7273283Y+4281147D01*
X+7271518Y+4291642D01*
X+7267826Y+4302137D01*
X+7261798Y+4312632D01*
X+7252576Y+4323012D01*
X+7242081Y+4330700D01*
X+7231586Y+4335618D01*
X+7221091Y+4338424D01*
X+7210596Y+4339397D01*
X+7210000Y+4339400D01*
X+7146500Y+4275900D02*
X+7146717Y+4281147D01*
X+7148482Y+4291642D01*
X+7152174Y+4302137D01*
X+7158202Y+4312632D01*
X+7167424Y+4323012D01*
X+7177919Y+4330700D01*
X+7188414Y+4335618D01*
X+7198909Y+4338424D01*
X+7209404Y+4339397D01*
X+7210000Y+4339400D01*
X+7146500Y+4275900D02*
X+7146717Y+4270653D01*
X+7148482Y+4260158D01*
X+7152174Y+4249663D01*
X+7158202Y+4239168D01*
X+7167424Y+4228788D01*
X+7177919Y+4221100D01*
X+7188414Y+4216182D01*
X+7198909Y+4213376D01*
X+7209404Y+4212403D01*
X+7210000Y+4212400D01*
X+7273500Y+4275900D02*
X+7273283Y+4270653D01*
X+7271518Y+4260158D01*
X+7267826Y+4249663D01*
X+7261798Y+4239168D01*
X+7252576Y+4228788D01*
X+7242081Y+4221100D01*
X+7231586Y+4216182D01*
X+7221091Y+4213376D01*
X+7210596Y+4212403D01*
X+7210000Y+4212400D01*
X+7165099Y+4320801D02*
X+7254901Y+4230999D01*
X+7165099Y+4230999D02*
X+7254901Y+4320801D01*
X+7973500Y+4675900D02*
X+7973283Y+4681147D01*
X+7971518Y+4691642D01*
X+7967826Y+4702137D01*
X+7961798Y+4712632D01*
X+7952576Y+4723012D01*
X+7942081Y+4730700D01*
X+7931586Y+4735618D01*
X+7921091Y+4738424D01*
X+7910596Y+4739397D01*
X+7910000Y+4739400D01*
X+7846500Y+4675900D02*
X+7846717Y+4681147D01*
X+7848482Y+4691642D01*
X+7852174Y+4702137D01*
X+7858202Y+4712632D01*
X+7867424Y+4723012D01*
X+7877919Y+4730700D01*
X+7888414Y+4735618D01*
X+7898909Y+4738424D01*
X+7909404Y+4739397D01*
X+7910000Y+4739400D01*
X+7846500Y+4675900D02*
X+7846717Y+4670653D01*
X+7848482Y+4660158D01*
X+7852174Y+4649663D01*
X+7858202Y+4639168D01*
X+7867424Y+4628788D01*
X+7877919Y+4621100D01*
X+7888414Y+4616182D01*
X+7898909Y+4613376D01*
X+7909404Y+4612403D01*
X+7910000Y+4612400D01*
X+7973500Y+4675900D02*
X+7973283Y+4670653D01*
X+7971518Y+4660158D01*
X+7967826Y+4649663D01*
X+7961798Y+4639168D01*
X+7952576Y+4628788D01*
X+7942081Y+4621100D01*
X+7931586Y+4616182D01*
X+7921091Y+4613376D01*
X+7910596Y+4612403D01*
X+7910000Y+4612400D01*
X+7910000Y+4739400D02*
X+7910000Y+4612400D01*
X+7846500Y+4675900D02*
X+7973500Y+4675900D01*
X+7973283Y+4681147D01*
X+7971518Y+4691642D01*
X+7967826Y+4702137D01*
X+7961798Y+4712632D01*
X+7952576Y+4723012D01*
X+7942081Y+4730700D01*
X+7931586Y+4735618D01*
X+7921091Y+4738424D01*
X+7910596Y+4739397D01*
X+7910000Y+4739400D01*
X+7846500Y+4675900D02*
X+7846717Y+4681147D01*
X+7848482Y+4691642D01*
X+7852174Y+4702137D01*
X+7858202Y+4712632D01*
X+7867424Y+4723012D01*
X+7877919Y+4730700D01*
X+7888414Y+4735618D01*
X+7898909Y+4738424D01*
X+7909404Y+4739397D01*
X+7910000Y+4739400D01*
X+7846500Y+4675900D02*
X+7846717Y+4670653D01*
X+7848482Y+4660158D01*
X+7852174Y+4649663D01*
X+7858202Y+4639168D01*
X+7867424Y+4628788D01*
X+7877919Y+4621100D01*
X+7888414Y+4616182D01*
X+7898909Y+4613376D01*
X+7909404Y+4612403D01*
X+7910000Y+4612400D01*
X+7973500Y+4675900D02*
X+7973283Y+4670653D01*
X+7971518Y+4660158D01*
X+7967826Y+4649663D01*
X+7961798Y+4639168D01*
X+7952576Y+4628788D01*
X+7942081Y+4621100D01*
X+7931586Y+4616182D01*
X+7921091Y+4613376D01*
X+7910596Y+4612403D01*
X+7910000Y+4612400D01*
X+7865099Y+4720801D02*
X+7954901Y+4630999D01*
X+7865099Y+4630999D02*
X+7954901Y+4720801D01*
X+7973500Y+4175520D02*
X+7973283Y+4180767D01*
X+7971518Y+4191262D01*
X+7967826Y+4201757D01*
X+7961798Y+4212252D01*
X+7952576Y+4222632D01*
X+7942081Y+4230320D01*
X+7931586Y+4235238D01*
X+7921091Y+4238044D01*
X+7910596Y+4239017D01*
X+7910000Y+4239020D01*
X+7846500Y+4175520D02*
X+7846717Y+4180767D01*
X+7848482Y+4191262D01*
X+7852174Y+4201757D01*
X+7858202Y+4212252D01*
X+7867424Y+4222632D01*
X+7877919Y+4230320D01*
X+7888414Y+4235238D01*
X+7898909Y+4238044D01*
X+7909404Y+4239017D01*
X+7910000Y+4239020D01*
X+7846500Y+4175520D02*
X+7846717Y+4170273D01*
X+7848482Y+4159778D01*
X+7852174Y+4149283D01*
X+7858202Y+4138788D01*
X+7867424Y+4128408D01*
X+7877919Y+4120720D01*
X+7888414Y+4115802D01*
X+7898909Y+4112996D01*
X+7909404Y+4112023D01*
X+7910000Y+4112020D01*
X+7973500Y+4175520D02*
X+7973283Y+4170273D01*
X+7971518Y+4159778D01*
X+7967826Y+4149283D01*
X+7961798Y+4138788D01*
X+7952576Y+4128408D01*
X+7942081Y+4120720D01*
X+7931586Y+4115802D01*
X+7921091Y+4112996D01*
X+7910596Y+4112023D01*
X+7910000Y+4112020D01*
X+7910000Y+4239020D02*
X+7910000Y+4112020D01*
X+7846500Y+4175520D02*
X+7973500Y+4175520D01*
X+7973283Y+4180767D01*
X+7971518Y+4191262D01*
X+7967826Y+4201757D01*
X+7961798Y+4212252D01*
X+7952576Y+4222632D01*
X+7942081Y+4230320D01*
X+7931586Y+4235238D01*
X+7921091Y+4238044D01*
X+7910596Y+4239017D01*
X+7910000Y+4239020D01*
X+7846500Y+4175520D02*
X+7846717Y+4180767D01*
X+7848482Y+4191262D01*
X+7852174Y+4201757D01*
X+7858202Y+4212252D01*
X+7867424Y+4222632D01*
X+7877919Y+4230320D01*
X+7888414Y+4235238D01*
X+7898909Y+4238044D01*
X+7909404Y+4239017D01*
X+7910000Y+4239020D01*
X+7846500Y+4175520D02*
X+7846717Y+4170273D01*
X+7848482Y+4159778D01*
X+7852174Y+4149283D01*
X+7858202Y+4138788D01*
X+7867424Y+4128408D01*
X+7877919Y+4120720D01*
X+7888414Y+4115802D01*
X+7898909Y+4112996D01*
X+7909404Y+4112023D01*
X+7910000Y+4112020D01*
X+7973500Y+4175520D02*
X+7973283Y+4170273D01*
X+7971518Y+4159778D01*
X+7967826Y+4149283D01*
X+7961798Y+4138788D01*
X+7952576Y+4128408D01*
X+7942081Y+4120720D01*
X+7931586Y+4115802D01*
X+7921091Y+4112996D01*
X+7910596Y+4112023D01*
X+7910000Y+4112020D01*
X+7865099Y+4220421D02*
X+7954901Y+4130619D01*
X+7865099Y+4130619D02*
X+7954901Y+4220421D01*
X+7973500Y+5475520D02*
X+7973283Y+5480767D01*
X+7971518Y+5491262D01*
X+7967826Y+5501757D01*
X+7961798Y+5512252D01*
X+7952576Y+5522632D01*
X+7942081Y+5530320D01*
X+7931586Y+5535238D01*
X+7921091Y+5538044D01*
X+7910596Y+5539017D01*
X+7910000Y+5539020D01*
X+7846500Y+5475520D02*
X+7846717Y+5480767D01*
X+7848482Y+5491262D01*
X+7852174Y+5501757D01*
X+7858202Y+5512252D01*
X+7867424Y+5522632D01*
X+7877919Y+5530320D01*
X+7888414Y+5535238D01*
X+7898909Y+5538044D01*
X+7909404Y+5539017D01*
X+7910000Y+5539020D01*
X+7846500Y+5475520D02*
X+7846717Y+5470273D01*
X+7848482Y+5459778D01*
X+7852174Y+5449283D01*
X+7858202Y+5438788D01*
X+7867424Y+5428408D01*
X+7877919Y+5420720D01*
X+7888414Y+5415802D01*
X+7898909Y+5412996D01*
X+7909404Y+5412023D01*
X+7910000Y+5412020D01*
X+7973500Y+5475520D02*
X+7973283Y+5470273D01*
X+7971518Y+5459778D01*
X+7967826Y+5449283D01*
X+7961798Y+5438788D01*
X+7952576Y+5428408D01*
X+7942081Y+5420720D01*
X+7931586Y+5415802D01*
X+7921091Y+5412996D01*
X+7910596Y+5412023D01*
X+7910000Y+5412020D01*
X+7910000Y+5539020D02*
X+7910000Y+5412020D01*
X+7846500Y+5475520D02*
X+7973500Y+5475520D01*
X+7973283Y+5480767D01*
X+7971518Y+5491262D01*
X+7967826Y+5501757D01*
X+7961798Y+5512252D01*
X+7952576Y+5522632D01*
X+7942081Y+5530320D01*
X+7931586Y+5535238D01*
X+7921091Y+5538044D01*
X+7910596Y+5539017D01*
X+7910000Y+5539020D01*
X+7846500Y+5475520D02*
X+7846717Y+5480767D01*
X+7848482Y+5491262D01*
X+7852174Y+5501757D01*
X+7858202Y+5512252D01*
X+7867424Y+5522632D01*
X+7877919Y+5530320D01*
X+7888414Y+5535238D01*
X+7898909Y+5538044D01*
X+7909404Y+5539017D01*
X+7910000Y+5539020D01*
X+7846500Y+5475520D02*
X+7846717Y+5470273D01*
X+7848482Y+5459778D01*
X+7852174Y+5449283D01*
X+7858202Y+5438788D01*
X+7867424Y+5428408D01*
X+7877919Y+5420720D01*
X+7888414Y+5415802D01*
X+7898909Y+5412996D01*
X+7909404Y+5412023D01*
X+7910000Y+5412020D01*
X+7973500Y+5475520D02*
X+7973283Y+5470273D01*
X+7971518Y+5459778D01*
X+7967826Y+5449283D01*
X+7961798Y+5438788D01*
X+7952576Y+5428408D01*
X+7942081Y+5420720D01*
X+7931586Y+5415802D01*
X+7921091Y+5412996D01*
X+7910596Y+5412023D01*
X+7910000Y+5412020D01*
X+7865099Y+5520421D02*
X+7954901Y+5430619D01*
X+7865099Y+5430619D02*
X+7954901Y+5520421D01*
X+7973500Y+5975900D02*
X+7973283Y+5981147D01*
X+7971518Y+5991642D01*
X+7967826Y+6002137D01*
X+7961798Y+6012632D01*
X+7952576Y+6023012D01*
X+7942081Y+6030700D01*
X+7931586Y+6035618D01*
X+7921091Y+6038424D01*
X+7910596Y+6039397D01*
X+7910000Y+6039400D01*
X+7846500Y+5975900D02*
X+7846717Y+5981147D01*
X+7848482Y+5991642D01*
X+7852174Y+6002137D01*
X+7858202Y+6012632D01*
X+7867424Y+6023012D01*
X+7877919Y+6030700D01*
X+7888414Y+6035618D01*
X+7898909Y+6038424D01*
X+7909404Y+6039397D01*
X+7910000Y+6039400D01*
X+7846500Y+5975900D02*
X+7846717Y+5970653D01*
X+7848482Y+5960158D01*
X+7852174Y+5949663D01*
X+7858202Y+5939168D01*
X+7867424Y+5928788D01*
X+7877919Y+5921100D01*
X+7888414Y+5916182D01*
X+7898909Y+5913376D01*
X+7909404Y+5912403D01*
X+7910000Y+5912400D01*
X+7973500Y+5975900D02*
X+7973283Y+5970653D01*
X+7971518Y+5960158D01*
X+7967826Y+5949663D01*
X+7961798Y+5939168D01*
X+7952576Y+5928788D01*
X+7942081Y+5921100D01*
X+7931586Y+5916182D01*
X+7921091Y+5913376D01*
X+7910596Y+5912403D01*
X+7910000Y+5912400D01*
X+7910000Y+6039400D02*
X+7910000Y+5912400D01*
X+7846500Y+5975900D02*
X+7973500Y+5975900D01*
X+7973283Y+5981147D01*
X+7971518Y+5991642D01*
X+7967826Y+6002137D01*
X+7961798Y+6012632D01*
X+7952576Y+6023012D01*
X+7942081Y+6030700D01*
X+7931586Y+6035618D01*
X+7921091Y+6038424D01*
X+7910596Y+6039397D01*
X+7910000Y+6039400D01*
X+7846500Y+5975900D02*
X+7846717Y+5981147D01*
X+7848482Y+5991642D01*
X+7852174Y+6002137D01*
X+7858202Y+6012632D01*
X+7867424Y+6023012D01*
X+7877919Y+6030700D01*
X+7888414Y+6035618D01*
X+7898909Y+6038424D01*
X+7909404Y+6039397D01*
X+7910000Y+6039400D01*
X+7846500Y+5975900D02*
X+7846717Y+5970653D01*
X+7848482Y+5960158D01*
X+7852174Y+5949663D01*
X+7858202Y+5939168D01*
X+7867424Y+5928788D01*
X+7877919Y+5921100D01*
X+7888414Y+5916182D01*
X+7898909Y+5913376D01*
X+7909404Y+5912403D01*
X+7910000Y+5912400D01*
X+7973500Y+5975900D02*
X+7973283Y+5970653D01*
X+7971518Y+5960158D01*
X+7967826Y+5949663D01*
X+7961798Y+5939168D01*
X+7952576Y+5928788D01*
X+7942081Y+5921100D01*
X+7931586Y+5916182D01*
X+7921091Y+5913376D01*
X+7910596Y+5912403D01*
X+7910000Y+5912400D01*
X+7865099Y+6020801D02*
X+7954901Y+5930999D01*
X+7865099Y+5930999D02*
X+7954901Y+6020801D01*
X+7273500Y+4675900D02*
X+7273283Y+4681147D01*
X+7271518Y+4691642D01*
X+7267826Y+4702137D01*
X+7261798Y+4712632D01*
X+7252576Y+4723012D01*
X+7242081Y+4730700D01*
X+7231586Y+4735618D01*
X+7221091Y+4738424D01*
X+7210596Y+4739397D01*
X+7210000Y+4739400D01*
X+7146500Y+4675900D02*
X+7146717Y+4681147D01*
X+7148482Y+4691642D01*
X+7152174Y+4702137D01*
X+7158202Y+4712632D01*
X+7167424Y+4723012D01*
X+7177919Y+4730700D01*
X+7188414Y+4735618D01*
X+7198909Y+4738424D01*
X+7209404Y+4739397D01*
X+7210000Y+4739400D01*
X+7146500Y+4675900D02*
X+7146717Y+4670653D01*
X+7148482Y+4660158D01*
X+7152174Y+4649663D01*
X+7158202Y+4639168D01*
X+7167424Y+4628788D01*
X+7177919Y+4621100D01*
X+7188414Y+4616182D01*
X+7198909Y+4613376D01*
X+7209404Y+4612403D01*
X+7210000Y+4612400D01*
X+7273500Y+4675900D02*
X+7273283Y+4670653D01*
X+7271518Y+4660158D01*
X+7267826Y+4649663D01*
X+7261798Y+4639168D01*
X+7252576Y+4628788D01*
X+7242081Y+4621100D01*
X+7231586Y+4616182D01*
X+7221091Y+4613376D01*
X+7210596Y+4612403D01*
X+7210000Y+4612400D01*
X+7165099Y+4720801D02*
X+7254901Y+4630999D01*
X+7165099Y+4630999D02*
X+7254901Y+4720801D01*
X+7273500Y+4929900D02*
X+7273283Y+4935147D01*
X+7271518Y+4945642D01*
X+7267826Y+4956137D01*
X+7261798Y+4966632D01*
X+7252576Y+4977012D01*
X+7242081Y+4984700D01*
X+7231586Y+4989618D01*
X+7221091Y+4992424D01*
X+7210596Y+4993397D01*
X+7210000Y+4993400D01*
X+7146500Y+4929900D02*
X+7146717Y+4935147D01*
X+7148482Y+4945642D01*
X+7152174Y+4956137D01*
X+7158202Y+4966632D01*
X+7167424Y+4977012D01*
X+7177919Y+4984700D01*
X+7188414Y+4989618D01*
X+7198909Y+4992424D01*
X+7209404Y+4993397D01*
X+7210000Y+4993400D01*
X+7146500Y+4929900D02*
X+7146717Y+4924653D01*
X+7148482Y+4914158D01*
X+7152174Y+4903663D01*
X+7158202Y+4893168D01*
X+7167424Y+4882788D01*
X+7177919Y+4875100D01*
X+7188414Y+4870182D01*
X+7198909Y+4867376D01*
X+7209404Y+4866403D01*
X+7210000Y+4866400D01*
X+7273500Y+4929900D02*
X+7273283Y+4924653D01*
X+7271518Y+4914158D01*
X+7267826Y+4903663D01*
X+7261798Y+4893168D01*
X+7252576Y+4882788D01*
X+7242081Y+4875100D01*
X+7231586Y+4870182D01*
X+7221091Y+4867376D01*
X+7210596Y+4866403D01*
X+7210000Y+4866400D01*
X+7165099Y+4974801D02*
X+7254901Y+4884999D01*
X+7165099Y+4884999D02*
X+7254901Y+4974801D01*
X+6873500Y+2580505D02*
X+6873283Y+2585752D01*
X+6871518Y+2596247D01*
X+6867826Y+2606742D01*
X+6861798Y+2617237D01*
X+6852576Y+2627617D01*
X+6842081Y+2635305D01*
X+6831586Y+2640223D01*
X+6821091Y+2643029D01*
X+6810596Y+2644002D01*
X+6810000Y+2644005D01*
X+6746500Y+2580505D02*
X+6746717Y+2585752D01*
X+6748482Y+2596247D01*
X+6752174Y+2606742D01*
X+6758202Y+2617237D01*
X+6767424Y+2627617D01*
X+6777919Y+2635305D01*
X+6788414Y+2640223D01*
X+6798909Y+2643029D01*
X+6809404Y+2644002D01*
X+6810000Y+2644005D01*
X+6746500Y+2580505D02*
X+6746717Y+2575258D01*
X+6748482Y+2564763D01*
X+6752174Y+2554268D01*
X+6758202Y+2543773D01*
X+6767424Y+2533393D01*
X+6777919Y+2525705D01*
X+6788414Y+2520787D01*
X+6798909Y+2517981D01*
X+6809404Y+2517008D01*
X+6810000Y+2517005D01*
X+6873500Y+2580505D02*
X+6873283Y+2575258D01*
X+6871518Y+2564763D01*
X+6867826Y+2554268D01*
X+6861798Y+2543773D01*
X+6852576Y+2533393D01*
X+6842081Y+2525705D01*
X+6831586Y+2520787D01*
X+6821091Y+2517981D01*
X+6810596Y+2517008D01*
X+6810000Y+2517005D01*
X+6765099Y+2625406D02*
X+6854901Y+2535604D01*
X+6765099Y+2535604D02*
X+6854901Y+2625406D01*
X+6873500Y+2326505D02*
X+6873283Y+2331752D01*
X+6871518Y+2342247D01*
X+6867826Y+2352742D01*
X+6861798Y+2363237D01*
X+6852576Y+2373617D01*
X+6842081Y+2381305D01*
X+6831586Y+2386223D01*
X+6821091Y+2389029D01*
X+6810596Y+2390002D01*
X+6810000Y+2390005D01*
X+6746500Y+2326505D02*
X+6746717Y+2331752D01*
X+6748482Y+2342247D01*
X+6752174Y+2352742D01*
X+6758202Y+2363237D01*
X+6767424Y+2373617D01*
X+6777919Y+2381305D01*
X+6788414Y+2386223D01*
X+6798909Y+2389029D01*
X+6809404Y+2390002D01*
X+6810000Y+2390005D01*
X+6746500Y+2326505D02*
X+6746717Y+2321258D01*
X+6748482Y+2310763D01*
X+6752174Y+2300268D01*
X+6758202Y+2289773D01*
X+6767424Y+2279393D01*
X+6777919Y+2271705D01*
X+6788414Y+2266787D01*
X+6798909Y+2263981D01*
X+6809404Y+2263008D01*
X+6810000Y+2263005D01*
X+6873500Y+2326505D02*
X+6873283Y+2321258D01*
X+6871518Y+2310763D01*
X+6867826Y+2300268D01*
X+6861798Y+2289773D01*
X+6852576Y+2279393D01*
X+6842081Y+2271705D01*
X+6831586Y+2266787D01*
X+6821091Y+2263981D01*
X+6810596Y+2263008D01*
X+6810000Y+2263005D01*
X+6765099Y+2371406D02*
X+6854901Y+2281604D01*
X+6765099Y+2281604D02*
X+6854901Y+2371406D01*
X+6873500Y+2072505D02*
X+6873283Y+2077752D01*
X+6871518Y+2088247D01*
X+6867826Y+2098742D01*
X+6861798Y+2109237D01*
X+6852576Y+2119617D01*
X+6842081Y+2127305D01*
X+6831586Y+2132223D01*
X+6821091Y+2135029D01*
X+6810596Y+2136002D01*
X+6810000Y+2136005D01*
X+6746500Y+2072505D02*
X+6746717Y+2077752D01*
X+6748482Y+2088247D01*
X+6752174Y+2098742D01*
X+6758202Y+2109237D01*
X+6767424Y+2119617D01*
X+6777919Y+2127305D01*
X+6788414Y+2132223D01*
X+6798909Y+2135029D01*
X+6809404Y+2136002D01*
X+6810000Y+2136005D01*
X+6746500Y+2072505D02*
X+6746717Y+2067258D01*
X+6748482Y+2056763D01*
X+6752174Y+2046268D01*
X+6758202Y+2035773D01*
X+6767424Y+2025393D01*
X+6777919Y+2017705D01*
X+6788414Y+2012787D01*
X+6798909Y+2009981D01*
X+6809404Y+2009008D01*
X+6810000Y+2009005D01*
X+6873500Y+2072505D02*
X+6873283Y+2067258D01*
X+6871518Y+2056763D01*
X+6867826Y+2046268D01*
X+6861798Y+2035773D01*
X+6852576Y+2025393D01*
X+6842081Y+2017705D01*
X+6831586Y+2012787D01*
X+6821091Y+2009981D01*
X+6810596Y+2009008D01*
X+6810000Y+2009005D01*
X+6765099Y+2117406D02*
X+6854901Y+2027604D01*
X+6765099Y+2027604D02*
X+6854901Y+2117406D01*
X+7910000Y+3496405D02*
X+7910000Y+3369405D01*
X+7846500Y+3432905D02*
X+7973500Y+3432905D01*
X+7865099Y+3477806D02*
X+7954901Y+3388004D01*
X+7865099Y+3388004D02*
X+7954901Y+3477806D01*
X+7910000Y+3293205D02*
X+7910000Y+3166205D01*
X+7846500Y+3229705D02*
X+7973500Y+3229705D01*
X+7865099Y+3274606D02*
X+7954901Y+3184804D01*
X+7865099Y+3184804D02*
X+7954901Y+3274606D01*
X+7910000Y+3090005D02*
X+7910000Y+2963005D01*
X+7846500Y+3026505D02*
X+7973500Y+3026505D01*
X+7865099Y+3071406D02*
X+7954901Y+2981604D01*
X+7865099Y+2981604D02*
X+7954901Y+3071406D01*
X+7410000Y+3090005D02*
X+7410000Y+2963005D01*
X+7346500Y+3026505D02*
X+7473500Y+3026505D01*
X+7365099Y+3071406D02*
X+7454901Y+2981604D01*
X+7365099Y+2981604D02*
X+7454901Y+3071406D01*
X+6394000Y+3090005D02*
X+6394000Y+2963005D01*
X+6330500Y+3026505D02*
X+6457500Y+3026505D01*
X+6349099Y+3071406D02*
X+6438901Y+2981604D01*
X+6349099Y+2981604D02*
X+6438901Y+3071406D01*
X+7426000Y+3390005D02*
X+7426000Y+3263005D01*
X+7362500Y+3326505D02*
X+7489500Y+3326505D01*
X+7381099Y+3371406D02*
X+7470901Y+3281604D01*
X+7381099Y+3281604D02*
X+7470901Y+3371406D01*
X+6410000Y+3390005D02*
X+6410000Y+3263005D01*
X+6346500Y+3326505D02*
X+6473500Y+3326505D01*
X+6365099Y+3371406D02*
X+6454901Y+3281604D01*
X+6365099Y+3281604D02*
X+6454901Y+3371406D01*
X+6710000Y+1506005D02*
X+6710000Y+1379005D01*
X+6646500Y+1442505D02*
X+6773500Y+1442505D01*
X+6665099Y+1487406D02*
X+6754901Y+1397604D01*
X+6665099Y+1397604D02*
X+6754901Y+1487406D01*
X+6710000Y+490005D02*
X+6710000Y+363005D01*
X+6646500Y+426505D02*
X+6773500Y+426505D01*
X+6665099Y+471406D02*
X+6754901Y+381604D01*
X+6665099Y+381604D02*
X+6754901Y+471406D01*
X+7273500Y+472505D02*
X+7273283Y+477752D01*
X+7271518Y+488247D01*
X+7267826Y+498742D01*
X+7261798Y+509237D01*
X+7252576Y+519617D01*
X+7242081Y+527305D01*
X+7231586Y+532223D01*
X+7221091Y+535029D01*
X+7210596Y+536002D01*
X+7210000Y+536005D01*
X+7146500Y+472505D02*
X+7146717Y+477752D01*
X+7148482Y+488247D01*
X+7152174Y+498742D01*
X+7158202Y+509237D01*
X+7167424Y+519617D01*
X+7177919Y+527305D01*
X+7188414Y+532223D01*
X+7198909Y+535029D01*
X+7209404Y+536002D01*
X+7210000Y+536005D01*
X+7146500Y+472505D02*
X+7146717Y+467258D01*
X+7148482Y+456763D01*
X+7152174Y+446268D01*
X+7158202Y+435773D01*
X+7167424Y+425393D01*
X+7177919Y+417705D01*
X+7188414Y+412787D01*
X+7198909Y+409981D01*
X+7209404Y+409008D01*
X+7210000Y+409005D01*
X+7273500Y+472505D02*
X+7273283Y+467258D01*
X+7271518Y+456763D01*
X+7267826Y+446268D01*
X+7261798Y+435773D01*
X+7252576Y+425393D01*
X+7242081Y+417705D01*
X+7231586Y+412787D01*
X+7221091Y+409981D01*
X+7210596Y+409008D01*
X+7210000Y+409005D01*
X+7165099Y+517406D02*
X+7254901Y+427604D01*
X+7165099Y+427604D02*
X+7254901Y+517406D01*
X+7273500Y+726505D02*
X+7273283Y+731752D01*
X+7271518Y+742247D01*
X+7267826Y+752742D01*
X+7261798Y+763237D01*
X+7252576Y+773617D01*
X+7242081Y+781305D01*
X+7231586Y+786223D01*
X+7221091Y+789029D01*
X+7210596Y+790002D01*
X+7210000Y+790005D01*
X+7146500Y+726505D02*
X+7146717Y+731752D01*
X+7148482Y+742247D01*
X+7152174Y+752742D01*
X+7158202Y+763237D01*
X+7167424Y+773617D01*
X+7177919Y+781305D01*
X+7188414Y+786223D01*
X+7198909Y+789029D01*
X+7209404Y+790002D01*
X+7210000Y+790005D01*
X+7146500Y+726505D02*
X+7146717Y+721258D01*
X+7148482Y+710763D01*
X+7152174Y+700268D01*
X+7158202Y+689773D01*
X+7167424Y+679393D01*
X+7177919Y+671705D01*
X+7188414Y+666787D01*
X+7198909Y+663981D01*
X+7209404Y+663008D01*
X+7210000Y+663005D01*
X+7273500Y+726505D02*
X+7273283Y+721258D01*
X+7271518Y+710763D01*
X+7267826Y+700268D01*
X+7261798Y+689773D01*
X+7252576Y+679393D01*
X+7242081Y+671705D01*
X+7231586Y+666787D01*
X+7221091Y+663981D01*
X+7210596Y+663008D01*
X+7210000Y+663005D01*
X+7165099Y+771406D02*
X+7254901Y+681604D01*
X+7165099Y+681604D02*
X+7254901Y+771406D01*
X+7973500Y+1126505D02*
X+7973283Y+1131752D01*
X+7971518Y+1142247D01*
X+7967826Y+1152742D01*
X+7961798Y+1163237D01*
X+7952576Y+1173617D01*
X+7942081Y+1181305D01*
X+7931586Y+1186223D01*
X+7921091Y+1189029D01*
X+7910596Y+1190002D01*
X+7910000Y+1190005D01*
X+7846500Y+1126505D02*
X+7846717Y+1131752D01*
X+7848482Y+1142247D01*
X+7852174Y+1152742D01*
X+7858202Y+1163237D01*
X+7867424Y+1173617D01*
X+7877919Y+1181305D01*
X+7888414Y+1186223D01*
X+7898909Y+1189029D01*
X+7909404Y+1190002D01*
X+7910000Y+1190005D01*
X+7846500Y+1126505D02*
X+7846717Y+1121258D01*
X+7848482Y+1110763D01*
X+7852174Y+1100268D01*
X+7858202Y+1089773D01*
X+7867424Y+1079393D01*
X+7877919Y+1071705D01*
X+7888414Y+1066787D01*
X+7898909Y+1063981D01*
X+7909404Y+1063008D01*
X+7910000Y+1063005D01*
X+7973500Y+1126505D02*
X+7973283Y+1121258D01*
X+7971518Y+1110763D01*
X+7967826Y+1100268D01*
X+7961798Y+1089773D01*
X+7952576Y+1079393D01*
X+7942081Y+1071705D01*
X+7931586Y+1066787D01*
X+7921091Y+1063981D01*
X+7910596Y+1063008D01*
X+7910000Y+1063005D01*
X+7910000Y+1190005D02*
X+7910000Y+1063005D01*
X+7846500Y+1126505D02*
X+7973500Y+1126505D01*
X+7973283Y+1131752D01*
X+7971518Y+1142247D01*
X+7967826Y+1152742D01*
X+7961798Y+1163237D01*
X+7952576Y+1173617D01*
X+7942081Y+1181305D01*
X+7931586Y+1186223D01*
X+7921091Y+1189029D01*
X+7910596Y+1190002D01*
X+7910000Y+1190005D01*
X+7846500Y+1126505D02*
X+7846717Y+1131752D01*
X+7848482Y+1142247D01*
X+7852174Y+1152742D01*
X+7858202Y+1163237D01*
X+7867424Y+1173617D01*
X+7877919Y+1181305D01*
X+7888414Y+1186223D01*
X+7898909Y+1189029D01*
X+7909404Y+1190002D01*
X+7910000Y+1190005D01*
X+7846500Y+1126505D02*
X+7846717Y+1121258D01*
X+7848482Y+1110763D01*
X+7852174Y+1100268D01*
X+7858202Y+1089773D01*
X+7867424Y+1079393D01*
X+7877919Y+1071705D01*
X+7888414Y+1066787D01*
X+7898909Y+1063981D01*
X+7909404Y+1063008D01*
X+7910000Y+1063005D01*
X+7973500Y+1126505D02*
X+7973283Y+1121258D01*
X+7971518Y+1110763D01*
X+7967826Y+1100268D01*
X+7961798Y+1089773D01*
X+7952576Y+1079393D01*
X+7942081Y+1071705D01*
X+7931586Y+1066787D01*
X+7921091Y+1063981D01*
X+7910596Y+1063008D01*
X+7910000Y+1063005D01*
X+7865099Y+1171406D02*
X+7954901Y+1081604D01*
X+7865099Y+1081604D02*
X+7954901Y+1171406D01*
X+7973500Y+626125D02*
X+7973283Y+631372D01*
X+7971518Y+641867D01*
X+7967826Y+652362D01*
X+7961798Y+662857D01*
X+7952576Y+673237D01*
X+7942081Y+680925D01*
X+7931586Y+685843D01*
X+7921091Y+688649D01*
X+7910596Y+689622D01*
X+7910000Y+689625D01*
X+7846500Y+626125D02*
X+7846717Y+631372D01*
X+7848482Y+641867D01*
X+7852174Y+652362D01*
X+7858202Y+662857D01*
X+7867424Y+673237D01*
X+7877919Y+680925D01*
X+7888414Y+685843D01*
X+7898909Y+688649D01*
X+7909404Y+689622D01*
X+7910000Y+689625D01*
X+7846500Y+626125D02*
X+7846717Y+620878D01*
X+7848482Y+610383D01*
X+7852174Y+599888D01*
X+7858202Y+589393D01*
X+7867424Y+579013D01*
X+7877919Y+571325D01*
X+7888414Y+566407D01*
X+7898909Y+563601D01*
X+7909404Y+562628D01*
X+7910000Y+562625D01*
X+7973500Y+626125D02*
X+7973283Y+620878D01*
X+7971518Y+610383D01*
X+7967826Y+599888D01*
X+7961798Y+589393D01*
X+7952576Y+579013D01*
X+7942081Y+571325D01*
X+7931586Y+566407D01*
X+7921091Y+563601D01*
X+7910596Y+562628D01*
X+7910000Y+562625D01*
X+7910000Y+689625D02*
X+7910000Y+562625D01*
X+7846500Y+626125D02*
X+7973500Y+626125D01*
X+7973283Y+631372D01*
X+7971518Y+641867D01*
X+7967826Y+652362D01*
X+7961798Y+662857D01*
X+7952576Y+673237D01*
X+7942081Y+680925D01*
X+7931586Y+685843D01*
X+7921091Y+688649D01*
X+7910596Y+689622D01*
X+7910000Y+689625D01*
X+7846500Y+626125D02*
X+7846717Y+631372D01*
X+7848482Y+641867D01*
X+7852174Y+652362D01*
X+7858202Y+662857D01*
X+7867424Y+673237D01*
X+7877919Y+680925D01*
X+7888414Y+685843D01*
X+7898909Y+688649D01*
X+7909404Y+689622D01*
X+7910000Y+689625D01*
X+7846500Y+626125D02*
X+7846717Y+620878D01*
X+7848482Y+610383D01*
X+7852174Y+599888D01*
X+7858202Y+589393D01*
X+7867424Y+579013D01*
X+7877919Y+571325D01*
X+7888414Y+566407D01*
X+7898909Y+563601D01*
X+7909404Y+562628D01*
X+7910000Y+562625D01*
X+7973500Y+626125D02*
X+7973283Y+620878D01*
X+7971518Y+610383D01*
X+7967826Y+599888D01*
X+7961798Y+589393D01*
X+7952576Y+579013D01*
X+7942081Y+571325D01*
X+7931586Y+566407D01*
X+7921091Y+563601D01*
X+7910596Y+562628D01*
X+7910000Y+562625D01*
X+7865099Y+671026D02*
X+7954901Y+581224D01*
X+7865099Y+581224D02*
X+7954901Y+671026D01*
X+7973500Y+1926125D02*
X+7973283Y+1931372D01*
X+7971518Y+1941867D01*
X+7967826Y+1952362D01*
X+7961798Y+1962857D01*
X+7952576Y+1973237D01*
X+7942081Y+1980925D01*
X+7931586Y+1985843D01*
X+7921091Y+1988649D01*
X+7910596Y+1989622D01*
X+7910000Y+1989625D01*
X+7846500Y+1926125D02*
X+7846717Y+1931372D01*
X+7848482Y+1941867D01*
X+7852174Y+1952362D01*
X+7858202Y+1962857D01*
X+7867424Y+1973237D01*
X+7877919Y+1980925D01*
X+7888414Y+1985843D01*
X+7898909Y+1988649D01*
X+7909404Y+1989622D01*
X+7910000Y+1989625D01*
X+7846500Y+1926125D02*
X+7846717Y+1920878D01*
X+7848482Y+1910383D01*
X+7852174Y+1899888D01*
X+7858202Y+1889393D01*
X+7867424Y+1879013D01*
X+7877919Y+1871325D01*
X+7888414Y+1866407D01*
X+7898909Y+1863601D01*
X+7909404Y+1862628D01*
X+7910000Y+1862625D01*
X+7973500Y+1926125D02*
X+7973283Y+1920878D01*
X+7971518Y+1910383D01*
X+7967826Y+1899888D01*
X+7961798Y+1889393D01*
X+7952576Y+1879013D01*
X+7942081Y+1871325D01*
X+7931586Y+1866407D01*
X+7921091Y+1863601D01*
X+7910596Y+1862628D01*
X+7910000Y+1862625D01*
X+7910000Y+1989625D02*
X+7910000Y+1862625D01*
X+7846500Y+1926125D02*
X+7973500Y+1926125D01*
X+7973283Y+1931372D01*
X+7971518Y+1941867D01*
X+7967826Y+1952362D01*
X+7961798Y+1962857D01*
X+7952576Y+1973237D01*
X+7942081Y+1980925D01*
X+7931586Y+1985843D01*
X+7921091Y+1988649D01*
X+7910596Y+1989622D01*
X+7910000Y+1989625D01*
X+7846500Y+1926125D02*
X+7846717Y+1931372D01*
X+7848482Y+1941867D01*
X+7852174Y+1952362D01*
X+7858202Y+1962857D01*
X+7867424Y+1973237D01*
X+7877919Y+1980925D01*
X+7888414Y+1985843D01*
X+7898909Y+1988649D01*
X+7909404Y+1989622D01*
X+7910000Y+1989625D01*
X+7846500Y+1926125D02*
X+7846717Y+1920878D01*
X+7848482Y+1910383D01*
X+7852174Y+1899888D01*
X+7858202Y+1889393D01*
X+7867424Y+1879013D01*
X+7877919Y+1871325D01*
X+7888414Y+1866407D01*
X+7898909Y+1863601D01*
X+7909404Y+1862628D01*
X+7910000Y+1862625D01*
X+7973500Y+1926125D02*
X+7973283Y+1920878D01*
X+7971518Y+1910383D01*
X+7967826Y+1899888D01*
X+7961798Y+1889393D01*
X+7952576Y+1879013D01*
X+7942081Y+1871325D01*
X+7931586Y+1866407D01*
X+7921091Y+1863601D01*
X+7910596Y+1862628D01*
X+7910000Y+1862625D01*
X+7865099Y+1971026D02*
X+7954901Y+1881224D01*
X+7865099Y+1881224D02*
X+7954901Y+1971026D01*
X+7973500Y+2426505D02*
X+7973283Y+2431752D01*
X+7971518Y+2442247D01*
X+7967826Y+2452742D01*
X+7961798Y+2463237D01*
X+7952576Y+2473617D01*
X+7942081Y+2481305D01*
X+7931586Y+2486223D01*
X+7921091Y+2489029D01*
X+7910596Y+2490002D01*
X+7910000Y+2490005D01*
X+7846500Y+2426505D02*
X+7846717Y+2431752D01*
X+7848482Y+2442247D01*
X+7852174Y+2452742D01*
X+7858202Y+2463237D01*
X+7867424Y+2473617D01*
X+7877919Y+2481305D01*
X+7888414Y+2486223D01*
X+7898909Y+2489029D01*
X+7909404Y+2490002D01*
X+7910000Y+2490005D01*
X+7846500Y+2426505D02*
X+7846717Y+2421258D01*
X+7848482Y+2410763D01*
X+7852174Y+2400268D01*
X+7858202Y+2389773D01*
X+7867424Y+2379393D01*
X+7877919Y+2371705D01*
X+7888414Y+2366787D01*
X+7898909Y+2363981D01*
X+7909404Y+2363008D01*
X+7910000Y+2363005D01*
X+7973500Y+2426505D02*
X+7973283Y+2421258D01*
X+7971518Y+2410763D01*
X+7967826Y+2400268D01*
X+7961798Y+2389773D01*
X+7952576Y+2379393D01*
X+7942081Y+2371705D01*
X+7931586Y+2366787D01*
X+7921091Y+2363981D01*
X+7910596Y+2363008D01*
X+7910000Y+2363005D01*
X+7910000Y+2490005D02*
X+7910000Y+2363005D01*
X+7846500Y+2426505D02*
X+7973500Y+2426505D01*
X+7973283Y+2431752D01*
X+7971518Y+2442247D01*
X+7967826Y+2452742D01*
X+7961798Y+2463237D01*
X+7952576Y+2473617D01*
X+7942081Y+2481305D01*
X+7931586Y+2486223D01*
X+7921091Y+2489029D01*
X+7910596Y+2490002D01*
X+7910000Y+2490005D01*
X+7846500Y+2426505D02*
X+7846717Y+2431752D01*
X+7848482Y+2442247D01*
X+7852174Y+2452742D01*
X+7858202Y+2463237D01*
X+7867424Y+2473617D01*
X+7877919Y+2481305D01*
X+7888414Y+2486223D01*
X+7898909Y+2489029D01*
X+7909404Y+2490002D01*
X+7910000Y+2490005D01*
X+7846500Y+2426505D02*
X+7846717Y+2421258D01*
X+7848482Y+2410763D01*
X+7852174Y+2400268D01*
X+7858202Y+2389773D01*
X+7867424Y+2379393D01*
X+7877919Y+2371705D01*
X+7888414Y+2366787D01*
X+7898909Y+2363981D01*
X+7909404Y+2363008D01*
X+7910000Y+2363005D01*
X+7973500Y+2426505D02*
X+7973283Y+2421258D01*
X+7971518Y+2410763D01*
X+7967826Y+2400268D01*
X+7961798Y+2389773D01*
X+7952576Y+2379393D01*
X+7942081Y+2371705D01*
X+7931586Y+2366787D01*
X+7921091Y+2363981D01*
X+7910596Y+2363008D01*
X+7910000Y+2363005D01*
X+7865099Y+2471406D02*
X+7954901Y+2381604D01*
X+7865099Y+2381604D02*
X+7954901Y+2471406D01*
X+7273500Y+1126505D02*
X+7273283Y+1131752D01*
X+7271518Y+1142247D01*
X+7267826Y+1152742D01*
X+7261798Y+1163237D01*
X+7252576Y+1173617D01*
X+7242081Y+1181305D01*
X+7231586Y+1186223D01*
X+7221091Y+1189029D01*
X+7210596Y+1190002D01*
X+7210000Y+1190005D01*
X+7146500Y+1126505D02*
X+7146717Y+1131752D01*
X+7148482Y+1142247D01*
X+7152174Y+1152742D01*
X+7158202Y+1163237D01*
X+7167424Y+1173617D01*
X+7177919Y+1181305D01*
X+7188414Y+1186223D01*
X+7198909Y+1189029D01*
X+7209404Y+1190002D01*
X+7210000Y+1190005D01*
X+7146500Y+1126505D02*
X+7146717Y+1121258D01*
X+7148482Y+1110763D01*
X+7152174Y+1100268D01*
X+7158202Y+1089773D01*
X+7167424Y+1079393D01*
X+7177919Y+1071705D01*
X+7188414Y+1066787D01*
X+7198909Y+1063981D01*
X+7209404Y+1063008D01*
X+7210000Y+1063005D01*
X+7273500Y+1126505D02*
X+7273283Y+1121258D01*
X+7271518Y+1110763D01*
X+7267826Y+1100268D01*
X+7261798Y+1089773D01*
X+7252576Y+1079393D01*
X+7242081Y+1071705D01*
X+7231586Y+1066787D01*
X+7221091Y+1063981D01*
X+7210596Y+1063008D01*
X+7210000Y+1063005D01*
X+7165099Y+1171406D02*
X+7254901Y+1081604D01*
X+7165099Y+1081604D02*
X+7254901Y+1171406D01*
X+7273500Y+1380505D02*
X+7273283Y+1385752D01*
X+7271518Y+1396247D01*
X+7267826Y+1406742D01*
X+7261798Y+1417237D01*
X+7252576Y+1427617D01*
X+7242081Y+1435305D01*
X+7231586Y+1440223D01*
X+7221091Y+1443029D01*
X+7210596Y+1444002D01*
X+7210000Y+1444005D01*
X+7146500Y+1380505D02*
X+7146717Y+1385752D01*
X+7148482Y+1396247D01*
X+7152174Y+1406742D01*
X+7158202Y+1417237D01*
X+7167424Y+1427617D01*
X+7177919Y+1435305D01*
X+7188414Y+1440223D01*
X+7198909Y+1443029D01*
X+7209404Y+1444002D01*
X+7210000Y+1444005D01*
X+7146500Y+1380505D02*
X+7146717Y+1375258D01*
X+7148482Y+1364763D01*
X+7152174Y+1354268D01*
X+7158202Y+1343773D01*
X+7167424Y+1333393D01*
X+7177919Y+1325705D01*
X+7188414Y+1320787D01*
X+7198909Y+1317981D01*
X+7209404Y+1317008D01*
X+7210000Y+1317005D01*
X+7273500Y+1380505D02*
X+7273283Y+1375258D01*
X+7271518Y+1364763D01*
X+7267826Y+1354268D01*
X+7261798Y+1343773D01*
X+7252576Y+1333393D01*
X+7242081Y+1325705D01*
X+7231586Y+1320787D01*
X+7221091Y+1317981D01*
X+7210596Y+1317008D01*
X+7210000Y+1317005D01*
X+7165099Y+1425406D02*
X+7254901Y+1335604D01*
X+7165099Y+1335604D02*
X+7254901Y+1425406D01*
X+4831800Y+2164400D02*
X+4831800Y+2037400D01*
X+4768300Y+2100900D02*
X+4895300Y+2100900D01*
X+4786899Y+2145801D02*
X+4876701Y+2055999D01*
X+4786899Y+2055999D02*
X+4876701Y+2145801D01*
X+5035000Y+2164400D02*
X+5035000Y+2037400D01*
X+4971500Y+2100900D02*
X+5098500Y+2100900D01*
X+4990099Y+2145801D02*
X+5079901Y+2055999D01*
X+4990099Y+2055999D02*
X+5079901Y+2145801D01*
X+5238200Y+2164400D02*
X+5238200Y+2037400D01*
X+5174700Y+2100900D02*
X+5301700Y+2100900D01*
X+5193299Y+2145801D02*
X+5283101Y+2055999D01*
X+5193299Y+2055999D02*
X+5283101Y+2145801D01*
X+4285000Y+3064400D02*
X+4285000Y+2937400D01*
X+4221500Y+3000900D02*
X+4348500Y+3000900D01*
X+4785000Y+3064400D02*
X+4785000Y+2937400D01*
X+4721500Y+3000900D02*
X+4848500Y+3000900D01*
X+5235000Y+2648400D02*
X+5235000Y+2521400D01*
X+5171500Y+2584900D02*
X+5298500Y+2584900D01*
X+5190099Y+2629801D02*
X+5279901Y+2539999D01*
X+5190099Y+2539999D02*
X+5279901Y+2629801D01*
X+5235000Y+3664400D02*
X+5235000Y+3537400D01*
X+5171500Y+3600900D02*
X+5298500Y+3600900D01*
X+5190099Y+3645801D02*
X+5279901Y+3555999D01*
X+5190099Y+3555999D02*
X+5279901Y+3645801D01*
X+5535000Y+3664400D02*
X+5535000Y+3537400D01*
X+5471500Y+3600900D02*
X+5598500Y+3600900D01*
X+5490099Y+3645801D02*
X+5579901Y+3555999D01*
X+5490099Y+3555999D02*
X+5579901Y+3645801D01*
X+5535000Y+2648400D02*
X+5535000Y+2521400D01*
X+5471500Y+2584900D02*
X+5598500Y+2584900D01*
X+5490099Y+2629801D02*
X+5579901Y+2539999D01*
X+5490099Y+2539999D02*
X+5579901Y+2629801D01*
X+5835000Y+3664400D02*
X+5835000Y+3537400D01*
X+5771500Y+3600900D02*
X+5898500Y+3600900D01*
X+5790099Y+3645801D02*
X+5879901Y+3555999D01*
X+5790099Y+3555999D02*
X+5879901Y+3645801D01*
X+5835000Y+2648400D02*
X+5835000Y+2521400D01*
X+5771500Y+2584900D02*
X+5898500Y+2584900D01*
X+5790099Y+2629801D02*
X+5879901Y+2539999D01*
X+5790099Y+2539999D02*
X+5879901Y+2629801D01*
X+810000Y+5339400D02*
X+810000Y+5212400D01*
X+746500Y+5275900D02*
X+873500Y+5275900D01*
X+765099Y+5320801D02*
X+854901Y+5230999D01*
X+765099Y+5230999D02*
X+854901Y+5320801D01*
X+1064000Y+5339400D02*
X+1064000Y+5212400D01*
X+1000500Y+5275900D02*
X+1127500Y+5275900D01*
X+1019099Y+5320801D02*
X+1108901Y+5230999D01*
X+1019099Y+5230999D02*
X+1108901Y+5320801D01*
X+1318000Y+5339400D02*
X+1318000Y+5212400D01*
X+1254500Y+5275900D02*
X+1381500Y+5275900D01*
X+1273099Y+5320801D02*
X+1362901Y+5230999D01*
X+1273099Y+5230999D02*
X+1362901Y+5320801D01*
X+1572000Y+5339400D02*
X+1572000Y+5212400D01*
X+1508500Y+5275900D02*
X+1635500Y+5275900D01*
X+1527099Y+5320801D02*
X+1616901Y+5230999D01*
X+1527099Y+5230999D02*
X+1616901Y+5320801D01*
X+1826000Y+5339400D02*
X+1826000Y+5212400D01*
X+1762500Y+5275900D02*
X+1889500Y+5275900D01*
X+1781099Y+5320801D02*
X+1870901Y+5230999D01*
X+1781099Y+5230999D02*
X+1870901Y+5320801D01*
X+2080000Y+5339400D02*
X+2080000Y+5212400D01*
X+2016500Y+5275900D02*
X+2143500Y+5275900D01*
X+2035099Y+5320801D02*
X+2124901Y+5230999D01*
X+2035099Y+5230999D02*
X+2124901Y+5320801D01*
X+2334000Y+5339400D02*
X+2334000Y+5212400D01*
X+2270500Y+5275900D02*
X+2397500Y+5275900D01*
X+2289099Y+5320801D02*
X+2378901Y+5230999D01*
X+2289099Y+5230999D02*
X+2378901Y+5320801D01*
X+2588000Y+5339400D02*
X+2588000Y+5212400D01*
X+2524500Y+5275900D02*
X+2651500Y+5275900D01*
X+2543099Y+5320801D02*
X+2632901Y+5230999D01*
X+2543099Y+5230999D02*
X+2632901Y+5320801D01*
X+2842000Y+5339400D02*
X+2842000Y+5212400D01*
X+2778500Y+5275900D02*
X+2905500Y+5275900D01*
X+2797099Y+5320801D02*
X+2886901Y+5230999D01*
X+2797099Y+5230999D02*
X+2886901Y+5320801D01*
X+3096000Y+5339400D02*
X+3096000Y+5212400D01*
X+3032500Y+5275900D02*
X+3159500Y+5275900D01*
X+3051099Y+5320801D02*
X+3140901Y+5230999D01*
X+3051099Y+5230999D02*
X+3140901Y+5320801D01*
X+3350000Y+5339400D02*
X+3350000Y+5212400D01*
X+3286500Y+5275900D02*
X+3413500Y+5275900D01*
X+3305099Y+5320801D02*
X+3394901Y+5230999D01*
X+3305099Y+5230999D02*
X+3394901Y+5320801D01*
X+3604000Y+5339400D02*
X+3604000Y+5212400D01*
X+3540500Y+5275900D02*
X+3667500Y+5275900D01*
X+3559099Y+5320801D02*
X+3648901Y+5230999D01*
X+3559099Y+5230999D02*
X+3648901Y+5320801D01*
X+3858000Y+5339400D02*
X+3858000Y+5212400D01*
X+3794500Y+5275900D02*
X+3921500Y+5275900D01*
X+3813099Y+5320801D02*
X+3902901Y+5230999D01*
X+3813099Y+5230999D02*
X+3902901Y+5320801D01*
X+4112000Y+5339400D02*
X+4112000Y+5212400D01*
X+4048500Y+5275900D02*
X+4175500Y+5275900D01*
X+4067099Y+5320801D02*
X+4156901Y+5230999D01*
X+4067099Y+5230999D02*
X+4156901Y+5320801D01*
X+4366000Y+5339400D02*
X+4366000Y+5212400D01*
X+4302500Y+5275900D02*
X+4429500Y+5275900D01*
X+4321099Y+5320801D02*
X+4410901Y+5230999D01*
X+4321099Y+5230999D02*
X+4410901Y+5320801D01*
X+4620000Y+5339400D02*
X+4620000Y+5212400D01*
X+4556500Y+5275900D02*
X+4683500Y+5275900D01*
X+4575099Y+5320801D02*
X+4664901Y+5230999D01*
X+4575099Y+5230999D02*
X+4664901Y+5320801D01*
X+4874000Y+5339400D02*
X+4874000Y+5212400D01*
X+4810500Y+5275900D02*
X+4937500Y+5275900D01*
X+4829099Y+5320801D02*
X+4918901Y+5230999D01*
X+4829099Y+5230999D02*
X+4918901Y+5320801D01*
X+5128000Y+5339400D02*
X+5128000Y+5212400D01*
X+5064500Y+5275900D02*
X+5191500Y+5275900D01*
X+5083099Y+5320801D02*
X+5172901Y+5230999D01*
X+5083099Y+5230999D02*
X+5172901Y+5320801D01*
X+5382000Y+5339400D02*
X+5382000Y+5212400D01*
X+5318500Y+5275900D02*
X+5445500Y+5275900D01*
X+5337099Y+5320801D02*
X+5426901Y+5230999D01*
X+5337099Y+5230999D02*
X+5426901Y+5320801D01*
X+5636000Y+5339400D02*
X+5636000Y+5212400D01*
X+5572500Y+5275900D02*
X+5699500Y+5275900D01*
X+5591099Y+5320801D02*
X+5680901Y+5230999D01*
X+5591099Y+5230999D02*
X+5680901Y+5320801D01*
X+5636000Y+6863400D02*
X+5636000Y+6736400D01*
X+5572500Y+6799900D02*
X+5699500Y+6799900D01*
X+5591099Y+6844801D02*
X+5680901Y+6754999D01*
X+5591099Y+6754999D02*
X+5680901Y+6844801D01*
X+5382000Y+6863400D02*
X+5382000Y+6736400D01*
X+5318500Y+6799900D02*
X+5445500Y+6799900D01*
X+5337099Y+6844801D02*
X+5426901Y+6754999D01*
X+5337099Y+6754999D02*
X+5426901Y+6844801D01*
X+5128000Y+6863400D02*
X+5128000Y+6736400D01*
X+5064500Y+6799900D02*
X+5191500Y+6799900D01*
X+5083099Y+6844801D02*
X+5172901Y+6754999D01*
X+5083099Y+6754999D02*
X+5172901Y+6844801D01*
X+4874000Y+6863400D02*
X+4874000Y+6736400D01*
X+4810500Y+6799900D02*
X+4937500Y+6799900D01*
X+4829099Y+6844801D02*
X+4918901Y+6754999D01*
X+4829099Y+6754999D02*
X+4918901Y+6844801D01*
X+4620000Y+6863400D02*
X+4620000Y+6736400D01*
X+4556500Y+6799900D02*
X+4683500Y+6799900D01*
X+4575099Y+6844801D02*
X+4664901Y+6754999D01*
X+4575099Y+6754999D02*
X+4664901Y+6844801D01*
X+4366000Y+6863400D02*
X+4366000Y+6736400D01*
X+4302500Y+6799900D02*
X+4429500Y+6799900D01*
X+4321099Y+6844801D02*
X+4410901Y+6754999D01*
X+4321099Y+6754999D02*
X+4410901Y+6844801D01*
X+4112000Y+6863400D02*
X+4112000Y+6736400D01*
X+4048500Y+6799900D02*
X+4175500Y+6799900D01*
X+4067099Y+6844801D02*
X+4156901Y+6754999D01*
X+4067099Y+6754999D02*
X+4156901Y+6844801D01*
X+3858000Y+6863400D02*
X+3858000Y+6736400D01*
X+3794500Y+6799900D02*
X+3921500Y+6799900D01*
X+3813099Y+6844801D02*
X+3902901Y+6754999D01*
X+3813099Y+6754999D02*
X+3902901Y+6844801D01*
X+3604000Y+6863400D02*
X+3604000Y+6736400D01*
X+3540500Y+6799900D02*
X+3667500Y+6799900D01*
X+3559099Y+6844801D02*
X+3648901Y+6754999D01*
X+3559099Y+6754999D02*
X+3648901Y+6844801D01*
X+3350000Y+6863400D02*
X+3350000Y+6736400D01*
X+3286500Y+6799900D02*
X+3413500Y+6799900D01*
X+3305099Y+6844801D02*
X+3394901Y+6754999D01*
X+3305099Y+6754999D02*
X+3394901Y+6844801D01*
X+3096000Y+6863400D02*
X+3096000Y+6736400D01*
X+3032500Y+6799900D02*
X+3159500Y+6799900D01*
X+3051099Y+6844801D02*
X+3140901Y+6754999D01*
X+3051099Y+6754999D02*
X+3140901Y+6844801D01*
X+2842000Y+6863400D02*
X+2842000Y+6736400D01*
X+2778500Y+6799900D02*
X+2905500Y+6799900D01*
X+2797099Y+6844801D02*
X+2886901Y+6754999D01*
X+2797099Y+6754999D02*
X+2886901Y+6844801D01*
X+2588000Y+6863400D02*
X+2588000Y+6736400D01*
X+2524500Y+6799900D02*
X+2651500Y+6799900D01*
X+2543099Y+6844801D02*
X+2632901Y+6754999D01*
X+2543099Y+6754999D02*
X+2632901Y+6844801D01*
X+2334000Y+6863400D02*
X+2334000Y+6736400D01*
X+2270500Y+6799900D02*
X+2397500Y+6799900D01*
X+2289099Y+6844801D02*
X+2378901Y+6754999D01*
X+2289099Y+6754999D02*
X+2378901Y+6844801D01*
X+2080000Y+6863400D02*
X+2080000Y+6736400D01*
X+2016500Y+6799900D02*
X+2143500Y+6799900D01*
X+2035099Y+6844801D02*
X+2124901Y+6754999D01*
X+2035099Y+6754999D02*
X+2124901Y+6844801D01*
X+1826000Y+6863400D02*
X+1826000Y+6736400D01*
X+1762500Y+6799900D02*
X+1889500Y+6799900D01*
X+1781099Y+6844801D02*
X+1870901Y+6754999D01*
X+1781099Y+6754999D02*
X+1870901Y+6844801D01*
X+1572000Y+6863400D02*
X+1572000Y+6736400D01*
X+1508500Y+6799900D02*
X+1635500Y+6799900D01*
X+1527099Y+6844801D02*
X+1616901Y+6754999D01*
X+1527099Y+6754999D02*
X+1616901Y+6844801D01*
X+1318000Y+6863400D02*
X+1318000Y+6736400D01*
X+1254500Y+6799900D02*
X+1381500Y+6799900D01*
X+1273099Y+6844801D02*
X+1362901Y+6754999D01*
X+1273099Y+6754999D02*
X+1362901Y+6844801D01*
X+1064000Y+6863400D02*
X+1064000Y+6736400D01*
X+1000500Y+6799900D02*
X+1127500Y+6799900D01*
X+1019099Y+6844801D02*
X+1108901Y+6754999D01*
X+1019099Y+6754999D02*
X+1108901Y+6844801D01*
X+810000Y+6863400D02*
X+810000Y+6736400D01*
X+746500Y+6799900D02*
X+873500Y+6799900D01*
X+765099Y+6844801D02*
X+854901Y+6754999D01*
X+765099Y+6754999D02*
X+854901Y+6844801D01*
X+4018000Y+4839400D02*
X+4018000Y+4712400D01*
X+3954500Y+4775900D02*
X+4081500Y+4775900D01*
X+3973099Y+4820801D02*
X+4062901Y+4730999D01*
X+3973099Y+4730999D02*
X+4062901Y+4820801D01*
X+3510000Y+4839400D02*
X+3510000Y+4712400D01*
X+3446500Y+4775900D02*
X+3573500Y+4775900D01*
X+3465099Y+4820801D02*
X+3554901Y+4730999D01*
X+3465099Y+4730999D02*
X+3554901Y+4820801D01*
X+4456000Y+4839400D02*
X+4456000Y+4712400D01*
X+4392500Y+4775900D02*
X+4519500Y+4775900D01*
X+4411099Y+4820801D02*
X+4500901Y+4730999D01*
X+4411099Y+4730999D02*
X+4500901Y+4820801D01*
X+4710000Y+4839400D02*
X+4710000Y+4712400D01*
X+4646500Y+4775900D02*
X+4773500Y+4775900D01*
X+4665099Y+4820801D02*
X+4754901Y+4730999D01*
X+4665099Y+4730999D02*
X+4754901Y+4820801D01*
X+3064000Y+4839400D02*
X+3064000Y+4712400D01*
X+3000500Y+4775900D02*
X+3127500Y+4775900D01*
X+3019099Y+4820801D02*
X+3108901Y+4730999D01*
X+3019099Y+4730999D02*
X+3108901Y+4820801D01*
X+2810000Y+4839400D02*
X+2810000Y+4712400D01*
X+2746500Y+4775900D02*
X+2873500Y+4775900D01*
X+2765099Y+4820801D02*
X+2854901Y+4730999D01*
X+2765099Y+4730999D02*
X+2854901Y+4820801D01*
X+2426000Y+4839400D02*
X+2426000Y+4712400D01*
X+2362500Y+4775900D02*
X+2489500Y+4775900D01*
X+2381099Y+4820801D02*
X+2470901Y+4730999D01*
X+2381099Y+4730999D02*
X+2470901Y+4820801D01*
X+1410000Y+4839400D02*
X+1410000Y+4712400D01*
X+1346500Y+4775900D02*
X+1473500Y+4775900D01*
X+1365099Y+4820801D02*
X+1454901Y+4730999D01*
X+1365099Y+4730999D02*
X+1454901Y+4820801D01*
X+5923500Y+4325900D02*
X+5923283Y+4331147D01*
X+5921518Y+4341642D01*
X+5917826Y+4352137D01*
X+5911798Y+4362632D01*
X+5902576Y+4373012D01*
X+5892081Y+4380700D01*
X+5881586Y+4385618D01*
X+5871091Y+4388424D01*
X+5860596Y+4389397D01*
X+5860000Y+4389400D01*
X+5796500Y+4325900D02*
X+5796717Y+4331147D01*
X+5798482Y+4341642D01*
X+5802174Y+4352137D01*
X+5808202Y+4362632D01*
X+5817424Y+4373012D01*
X+5827919Y+4380700D01*
X+5838414Y+4385618D01*
X+5848909Y+4388424D01*
X+5859404Y+4389397D01*
X+5860000Y+4389400D01*
X+5796500Y+4325900D02*
X+5796717Y+4320653D01*
X+5798482Y+4310158D01*
X+5802174Y+4299663D01*
X+5808202Y+4289168D01*
X+5817424Y+4278788D01*
X+5827919Y+4271100D01*
X+5838414Y+4266182D01*
X+5848909Y+4263376D01*
X+5859404Y+4262403D01*
X+5860000Y+4262400D01*
X+5923500Y+4325900D02*
X+5923283Y+4320653D01*
X+5921518Y+4310158D01*
X+5917826Y+4299663D01*
X+5911798Y+4289168D01*
X+5902576Y+4278788D01*
X+5892081Y+4271100D01*
X+5881586Y+4266182D01*
X+5871091Y+4263376D01*
X+5860596Y+4262403D01*
X+5860000Y+4262400D01*
X+5860000Y+4389400D02*
X+5860000Y+4262400D01*
X+5796500Y+4325900D02*
X+5923500Y+4325900D01*
X+5273500Y+4325900D02*
X+5273283Y+4331147D01*
X+5271518Y+4341642D01*
X+5267826Y+4352137D01*
X+5261798Y+4362632D01*
X+5252576Y+4373012D01*
X+5242081Y+4380700D01*
X+5231586Y+4385618D01*
X+5221091Y+4388424D01*
X+5210596Y+4389397D01*
X+5210000Y+4389400D01*
X+5146500Y+4325900D02*
X+5146717Y+4331147D01*
X+5148482Y+4341642D01*
X+5152174Y+4352137D01*
X+5158202Y+4362632D01*
X+5167424Y+4373012D01*
X+5177919Y+4380700D01*
X+5188414Y+4385618D01*
X+5198909Y+4388424D01*
X+5209404Y+4389397D01*
X+5210000Y+4389400D01*
X+5146500Y+4325900D02*
X+5146717Y+4320653D01*
X+5148482Y+4310158D01*
X+5152174Y+4299663D01*
X+5158202Y+4289168D01*
X+5167424Y+4278788D01*
X+5177919Y+4271100D01*
X+5188414Y+4266182D01*
X+5198909Y+4263376D01*
X+5209404Y+4262403D01*
X+5210000Y+4262400D01*
X+5273500Y+4325900D02*
X+5273283Y+4320653D01*
X+5271518Y+4310158D01*
X+5267826Y+4299663D01*
X+5261798Y+4289168D01*
X+5252576Y+4278788D01*
X+5242081Y+4271100D01*
X+5231586Y+4266182D01*
X+5221091Y+4263376D01*
X+5210596Y+4262403D01*
X+5210000Y+4262400D01*
X+5210000Y+4389400D02*
X+5210000Y+4262400D01*
X+5146500Y+4325900D02*
X+5273500Y+4325900D01*
X+5923500Y+4775900D02*
X+5923283Y+4781147D01*
X+5921518Y+4791642D01*
X+5917826Y+4802137D01*
X+5911798Y+4812632D01*
X+5902576Y+4823012D01*
X+5892081Y+4830700D01*
X+5881586Y+4835618D01*
X+5871091Y+4838424D01*
X+5860596Y+4839397D01*
X+5860000Y+4839400D01*
X+5796500Y+4775900D02*
X+5796717Y+4781147D01*
X+5798482Y+4791642D01*
X+5802174Y+4802137D01*
X+5808202Y+4812632D01*
X+5817424Y+4823012D01*
X+5827919Y+4830700D01*
X+5838414Y+4835618D01*
X+5848909Y+4838424D01*
X+5859404Y+4839397D01*
X+5860000Y+4839400D01*
X+5796500Y+4775900D02*
X+5796717Y+4770653D01*
X+5798482Y+4760158D01*
X+5802174Y+4749663D01*
X+5808202Y+4739168D01*
X+5817424Y+4728788D01*
X+5827919Y+4721100D01*
X+5838414Y+4716182D01*
X+5848909Y+4713376D01*
X+5859404Y+4712403D01*
X+5860000Y+4712400D01*
X+5923500Y+4775900D02*
X+5923283Y+4770653D01*
X+5921518Y+4760158D01*
X+5917826Y+4749663D01*
X+5911798Y+4739168D01*
X+5902576Y+4728788D01*
X+5892081Y+4721100D01*
X+5881586Y+4716182D01*
X+5871091Y+4713376D01*
X+5860596Y+4712403D01*
X+5860000Y+4712400D01*
X+5860000Y+4839400D02*
X+5860000Y+4712400D01*
X+5796500Y+4775900D02*
X+5923500Y+4775900D01*
X+5273500Y+4775900D02*
X+5273283Y+4781147D01*
X+5271518Y+4791642D01*
X+5267826Y+4802137D01*
X+5261798Y+4812632D01*
X+5252576Y+4823012D01*
X+5242081Y+4830700D01*
X+5231586Y+4835618D01*
X+5221091Y+4838424D01*
X+5210596Y+4839397D01*
X+5210000Y+4839400D01*
X+5146500Y+4775900D02*
X+5146717Y+4781147D01*
X+5148482Y+4791642D01*
X+5152174Y+4802137D01*
X+5158202Y+4812632D01*
X+5167424Y+4823012D01*
X+5177919Y+4830700D01*
X+5188414Y+4835618D01*
X+5198909Y+4838424D01*
X+5209404Y+4839397D01*
X+5210000Y+4839400D01*
X+5146500Y+4775900D02*
X+5146717Y+4770653D01*
X+5148482Y+4760158D01*
X+5152174Y+4749663D01*
X+5158202Y+4739168D01*
X+5167424Y+4728788D01*
X+5177919Y+4721100D01*
X+5188414Y+4716182D01*
X+5198909Y+4713376D01*
X+5209404Y+4712403D01*
X+5210000Y+4712400D01*
X+5273500Y+4775900D02*
X+5273283Y+4770653D01*
X+5271518Y+4760158D01*
X+5267826Y+4749663D01*
X+5261798Y+4739168D01*
X+5252576Y+4728788D01*
X+5242081Y+4721100D01*
X+5231586Y+4716182D01*
X+5221091Y+4713376D01*
X+5210596Y+4712403D01*
X+5210000Y+4712400D01*
X+5210000Y+4839400D02*
X+5210000Y+4712400D01*
X+5146500Y+4775900D02*
X+5273500Y+4775900D01*
X+5373500Y+975900D02*
X+5373283Y+981147D01*
X+5371518Y+991642D01*
X+5367826Y+1002137D01*
X+5361798Y+1012632D01*
X+5352576Y+1023012D01*
X+5342081Y+1030700D01*
X+5331586Y+1035618D01*
X+5321091Y+1038424D01*
X+5310596Y+1039397D01*
X+5310000Y+1039400D01*
X+5246500Y+975900D02*
X+5246717Y+981147D01*
X+5248482Y+991642D01*
X+5252174Y+1002137D01*
X+5258202Y+1012632D01*
X+5267424Y+1023012D01*
X+5277919Y+1030700D01*
X+5288414Y+1035618D01*
X+5298909Y+1038424D01*
X+5309404Y+1039397D01*
X+5310000Y+1039400D01*
X+5246500Y+975900D02*
X+5246717Y+970653D01*
X+5248482Y+960158D01*
X+5252174Y+949663D01*
X+5258202Y+939168D01*
X+5267424Y+928788D01*
X+5277919Y+921100D01*
X+5288414Y+916182D01*
X+5298909Y+913376D01*
X+5309404Y+912403D01*
X+5310000Y+912400D01*
X+5373500Y+975900D02*
X+5373283Y+970653D01*
X+5371518Y+960158D01*
X+5367826Y+949663D01*
X+5361798Y+939168D01*
X+5352576Y+928788D01*
X+5342081Y+921100D01*
X+5331586Y+916182D01*
X+5321091Y+913376D01*
X+5310596Y+912403D01*
X+5310000Y+912400D01*
X+5265099Y+1020801D02*
X+5354901Y+930999D01*
X+5265099Y+930999D02*
X+5354901Y+1020801D01*
X+5627500Y+975900D02*
X+5627283Y+981147D01*
X+5625518Y+991642D01*
X+5621826Y+1002137D01*
X+5615798Y+1012632D01*
X+5606576Y+1023012D01*
X+5596081Y+1030700D01*
X+5585586Y+1035618D01*
X+5575091Y+1038424D01*
X+5564596Y+1039397D01*
X+5564000Y+1039400D01*
X+5500500Y+975900D02*
X+5500717Y+981147D01*
X+5502482Y+991642D01*
X+5506174Y+1002137D01*
X+5512202Y+1012632D01*
X+5521424Y+1023012D01*
X+5531919Y+1030700D01*
X+5542414Y+1035618D01*
X+5552909Y+1038424D01*
X+5563404Y+1039397D01*
X+5564000Y+1039400D01*
X+5500500Y+975900D02*
X+5500717Y+970653D01*
X+5502482Y+960158D01*
X+5506174Y+949663D01*
X+5512202Y+939168D01*
X+5521424Y+928788D01*
X+5531919Y+921100D01*
X+5542414Y+916182D01*
X+5552909Y+913376D01*
X+5563404Y+912403D01*
X+5564000Y+912400D01*
X+5627500Y+975900D02*
X+5627283Y+970653D01*
X+5625518Y+960158D01*
X+5621826Y+949663D01*
X+5615798Y+939168D01*
X+5606576Y+928788D01*
X+5596081Y+921100D01*
X+5585586Y+916182D01*
X+5575091Y+913376D01*
X+5564596Y+912403D01*
X+5564000Y+912400D01*
X+5519099Y+1020801D02*
X+5608901Y+930999D01*
X+5519099Y+930999D02*
X+5608901Y+1020801D01*
X+5881500Y+975900D02*
X+5881283Y+981147D01*
X+5879518Y+991642D01*
X+5875826Y+1002137D01*
X+5869798Y+1012632D01*
X+5860576Y+1023012D01*
X+5850081Y+1030700D01*
X+5839586Y+1035618D01*
X+5829091Y+1038424D01*
X+5818596Y+1039397D01*
X+5818000Y+1039400D01*
X+5754500Y+975900D02*
X+5754717Y+981147D01*
X+5756482Y+991642D01*
X+5760174Y+1002137D01*
X+5766202Y+1012632D01*
X+5775424Y+1023012D01*
X+5785919Y+1030700D01*
X+5796414Y+1035618D01*
X+5806909Y+1038424D01*
X+5817404Y+1039397D01*
X+5818000Y+1039400D01*
X+5754500Y+975900D02*
X+5754717Y+970653D01*
X+5756482Y+960158D01*
X+5760174Y+949663D01*
X+5766202Y+939168D01*
X+5775424Y+928788D01*
X+5785919Y+921100D01*
X+5796414Y+916182D01*
X+5806909Y+913376D01*
X+5817404Y+912403D01*
X+5818000Y+912400D01*
X+5881500Y+975900D02*
X+5881283Y+970653D01*
X+5879518Y+960158D01*
X+5875826Y+949663D01*
X+5869798Y+939168D01*
X+5860576Y+928788D01*
X+5850081Y+921100D01*
X+5839586Y+916182D01*
X+5829091Y+913376D01*
X+5818596Y+912403D01*
X+5818000Y+912400D01*
X+5773099Y+1020801D02*
X+5862901Y+930999D01*
X+5773099Y+930999D02*
X+5862901Y+1020801D01*
X+4273500Y+975900D02*
X+4273283Y+981147D01*
X+4271518Y+991642D01*
X+4267826Y+1002137D01*
X+4261798Y+1012632D01*
X+4252576Y+1023012D01*
X+4242081Y+1030700D01*
X+4231586Y+1035618D01*
X+4221091Y+1038424D01*
X+4210596Y+1039397D01*
X+4210000Y+1039400D01*
X+4146500Y+975900D02*
X+4146717Y+981147D01*
X+4148482Y+991642D01*
X+4152174Y+1002137D01*
X+4158202Y+1012632D01*
X+4167424Y+1023012D01*
X+4177919Y+1030700D01*
X+4188414Y+1035618D01*
X+4198909Y+1038424D01*
X+4209404Y+1039397D01*
X+4210000Y+1039400D01*
X+4146500Y+975900D02*
X+4146717Y+970653D01*
X+4148482Y+960158D01*
X+4152174Y+949663D01*
X+4158202Y+939168D01*
X+4167424Y+928788D01*
X+4177919Y+921100D01*
X+4188414Y+916182D01*
X+4198909Y+913376D01*
X+4209404Y+912403D01*
X+4210000Y+912400D01*
X+4273500Y+975900D02*
X+4273283Y+970653D01*
X+4271518Y+960158D01*
X+4267826Y+949663D01*
X+4261798Y+939168D01*
X+4252576Y+928788D01*
X+4242081Y+921100D01*
X+4231586Y+916182D01*
X+4221091Y+913376D01*
X+4210596Y+912403D01*
X+4210000Y+912400D01*
X+4165099Y+1020801D02*
X+4254901Y+930999D01*
X+4165099Y+930999D02*
X+4254901Y+1020801D01*
X+4527500Y+975900D02*
X+4527283Y+981147D01*
X+4525518Y+991642D01*
X+4521826Y+1002137D01*
X+4515798Y+1012632D01*
X+4506576Y+1023012D01*
X+4496081Y+1030700D01*
X+4485586Y+1035618D01*
X+4475091Y+1038424D01*
X+4464596Y+1039397D01*
X+4464000Y+1039400D01*
X+4400500Y+975900D02*
X+4400717Y+981147D01*
X+4402482Y+991642D01*
X+4406174Y+1002137D01*
X+4412202Y+1012632D01*
X+4421424Y+1023012D01*
X+4431919Y+1030700D01*
X+4442414Y+1035618D01*
X+4452909Y+1038424D01*
X+4463404Y+1039397D01*
X+4464000Y+1039400D01*
X+4400500Y+975900D02*
X+4400717Y+970653D01*
X+4402482Y+960158D01*
X+4406174Y+949663D01*
X+4412202Y+939168D01*
X+4421424Y+928788D01*
X+4431919Y+921100D01*
X+4442414Y+916182D01*
X+4452909Y+913376D01*
X+4463404Y+912403D01*
X+4464000Y+912400D01*
X+4527500Y+975900D02*
X+4527283Y+970653D01*
X+4525518Y+960158D01*
X+4521826Y+949663D01*
X+4515798Y+939168D01*
X+4506576Y+928788D01*
X+4496081Y+921100D01*
X+4485586Y+916182D01*
X+4475091Y+913376D01*
X+4464596Y+912403D01*
X+4464000Y+912400D01*
X+4419099Y+1020801D02*
X+4508901Y+930999D01*
X+4419099Y+930999D02*
X+4508901Y+1020801D01*
X+4781500Y+975900D02*
X+4781283Y+981147D01*
X+4779518Y+991642D01*
X+4775826Y+1002137D01*
X+4769798Y+1012632D01*
X+4760576Y+1023012D01*
X+4750081Y+1030700D01*
X+4739586Y+1035618D01*
X+4729091Y+1038424D01*
X+4718596Y+1039397D01*
X+4718000Y+1039400D01*
X+4654500Y+975900D02*
X+4654717Y+981147D01*
X+4656482Y+991642D01*
X+4660174Y+1002137D01*
X+4666202Y+1012632D01*
X+4675424Y+1023012D01*
X+4685919Y+1030700D01*
X+4696414Y+1035618D01*
X+4706909Y+1038424D01*
X+4717404Y+1039397D01*
X+4718000Y+1039400D01*
X+4654500Y+975900D02*
X+4654717Y+970653D01*
X+4656482Y+960158D01*
X+4660174Y+949663D01*
X+4666202Y+939168D01*
X+4675424Y+928788D01*
X+4685919Y+921100D01*
X+4696414Y+916182D01*
X+4706909Y+913376D01*
X+4717404Y+912403D01*
X+4718000Y+912400D01*
X+4781500Y+975900D02*
X+4781283Y+970653D01*
X+4779518Y+960158D01*
X+4775826Y+949663D01*
X+4769798Y+939168D01*
X+4760576Y+928788D01*
X+4750081Y+921100D01*
X+4739586Y+916182D01*
X+4729091Y+913376D01*
X+4718596Y+912403D01*
X+4718000Y+912400D01*
X+4673099Y+1020801D02*
X+4762901Y+930999D01*
X+4673099Y+930999D02*
X+4762901Y+1020801D01*
X+3173500Y+975900D02*
X+3173283Y+981147D01*
X+3171518Y+991642D01*
X+3167826Y+1002137D01*
X+3161798Y+1012632D01*
X+3152576Y+1023012D01*
X+3142081Y+1030700D01*
X+3131586Y+1035618D01*
X+3121091Y+1038424D01*
X+3110596Y+1039397D01*
X+3110000Y+1039400D01*
X+3046500Y+975900D02*
X+3046717Y+981147D01*
X+3048482Y+991642D01*
X+3052174Y+1002137D01*
X+3058202Y+1012632D01*
X+3067424Y+1023012D01*
X+3077919Y+1030700D01*
X+3088414Y+1035618D01*
X+3098909Y+1038424D01*
X+3109404Y+1039397D01*
X+3110000Y+1039400D01*
X+3046500Y+975900D02*
X+3046717Y+970653D01*
X+3048482Y+960158D01*
X+3052174Y+949663D01*
X+3058202Y+939168D01*
X+3067424Y+928788D01*
X+3077919Y+921100D01*
X+3088414Y+916182D01*
X+3098909Y+913376D01*
X+3109404Y+912403D01*
X+3110000Y+912400D01*
X+3173500Y+975900D02*
X+3173283Y+970653D01*
X+3171518Y+960158D01*
X+3167826Y+949663D01*
X+3161798Y+939168D01*
X+3152576Y+928788D01*
X+3142081Y+921100D01*
X+3131586Y+916182D01*
X+3121091Y+913376D01*
X+3110596Y+912403D01*
X+3110000Y+912400D01*
X+3065099Y+1020801D02*
X+3154901Y+930999D01*
X+3065099Y+930999D02*
X+3154901Y+1020801D01*
X+3427500Y+975900D02*
X+3427283Y+981147D01*
X+3425518Y+991642D01*
X+3421826Y+1002137D01*
X+3415798Y+1012632D01*
X+3406576Y+1023012D01*
X+3396081Y+1030700D01*
X+3385586Y+1035618D01*
X+3375091Y+1038424D01*
X+3364596Y+1039397D01*
X+3364000Y+1039400D01*
X+3300500Y+975900D02*
X+3300717Y+981147D01*
X+3302482Y+991642D01*
X+3306174Y+1002137D01*
X+3312202Y+1012632D01*
X+3321424Y+1023012D01*
X+3331919Y+1030700D01*
X+3342414Y+1035618D01*
X+3352909Y+1038424D01*
X+3363404Y+1039397D01*
X+3364000Y+1039400D01*
X+3300500Y+975900D02*
X+3300717Y+970653D01*
X+3302482Y+960158D01*
X+3306174Y+949663D01*
X+3312202Y+939168D01*
X+3321424Y+928788D01*
X+3331919Y+921100D01*
X+3342414Y+916182D01*
X+3352909Y+913376D01*
X+3363404Y+912403D01*
X+3364000Y+912400D01*
X+3427500Y+975900D02*
X+3427283Y+970653D01*
X+3425518Y+960158D01*
X+3421826Y+949663D01*
X+3415798Y+939168D01*
X+3406576Y+928788D01*
X+3396081Y+921100D01*
X+3385586Y+916182D01*
X+3375091Y+913376D01*
X+3364596Y+912403D01*
X+3364000Y+912400D01*
X+3319099Y+1020801D02*
X+3408901Y+930999D01*
X+3319099Y+930999D02*
X+3408901Y+1020801D01*
X+3681500Y+975900D02*
X+3681283Y+981147D01*
X+3679518Y+991642D01*
X+3675826Y+1002137D01*
X+3669798Y+1012632D01*
X+3660576Y+1023012D01*
X+3650081Y+1030700D01*
X+3639586Y+1035618D01*
X+3629091Y+1038424D01*
X+3618596Y+1039397D01*
X+3618000Y+1039400D01*
X+3554500Y+975900D02*
X+3554717Y+981147D01*
X+3556482Y+991642D01*
X+3560174Y+1002137D01*
X+3566202Y+1012632D01*
X+3575424Y+1023012D01*
X+3585919Y+1030700D01*
X+3596414Y+1035618D01*
X+3606909Y+1038424D01*
X+3617404Y+1039397D01*
X+3618000Y+1039400D01*
X+3554500Y+975900D02*
X+3554717Y+970653D01*
X+3556482Y+960158D01*
X+3560174Y+949663D01*
X+3566202Y+939168D01*
X+3575424Y+928788D01*
X+3585919Y+921100D01*
X+3596414Y+916182D01*
X+3606909Y+913376D01*
X+3617404Y+912403D01*
X+3618000Y+912400D01*
X+3681500Y+975900D02*
X+3681283Y+970653D01*
X+3679518Y+960158D01*
X+3675826Y+949663D01*
X+3669798Y+939168D01*
X+3660576Y+928788D01*
X+3650081Y+921100D01*
X+3639586Y+916182D01*
X+3629091Y+913376D01*
X+3618596Y+912403D01*
X+3618000Y+912400D01*
X+3573099Y+1020801D02*
X+3662901Y+930999D01*
X+3573099Y+930999D02*
X+3662901Y+1020801D01*
X+2073500Y+975900D02*
X+2073283Y+981147D01*
X+2071518Y+991642D01*
X+2067826Y+1002137D01*
X+2061798Y+1012632D01*
X+2052576Y+1023012D01*
X+2042081Y+1030700D01*
X+2031586Y+1035618D01*
X+2021091Y+1038424D01*
X+2010596Y+1039397D01*
X+2010000Y+1039400D01*
X+1946500Y+975900D02*
X+1946717Y+981147D01*
X+1948482Y+991642D01*
X+1952174Y+1002137D01*
X+1958202Y+1012632D01*
X+1967424Y+1023012D01*
X+1977919Y+1030700D01*
X+1988414Y+1035618D01*
X+1998909Y+1038424D01*
X+2009404Y+1039397D01*
X+2010000Y+1039400D01*
X+1946500Y+975900D02*
X+1946717Y+970653D01*
X+1948482Y+960158D01*
X+1952174Y+949663D01*
X+1958202Y+939168D01*
X+1967424Y+928788D01*
X+1977919Y+921100D01*
X+1988414Y+916182D01*
X+1998909Y+913376D01*
X+2009404Y+912403D01*
X+2010000Y+912400D01*
X+2073500Y+975900D02*
X+2073283Y+970653D01*
X+2071518Y+960158D01*
X+2067826Y+949663D01*
X+2061798Y+939168D01*
X+2052576Y+928788D01*
X+2042081Y+921100D01*
X+2031586Y+916182D01*
X+2021091Y+913376D01*
X+2010596Y+912403D01*
X+2010000Y+912400D01*
X+1965099Y+1020801D02*
X+2054901Y+930999D01*
X+1965099Y+930999D02*
X+2054901Y+1020801D01*
X+2327500Y+975900D02*
X+2327283Y+981147D01*
X+2325518Y+991642D01*
X+2321826Y+1002137D01*
X+2315798Y+1012632D01*
X+2306576Y+1023012D01*
X+2296081Y+1030700D01*
X+2285586Y+1035618D01*
X+2275091Y+1038424D01*
X+2264596Y+1039397D01*
X+2264000Y+1039400D01*
X+2200500Y+975900D02*
X+2200717Y+981147D01*
X+2202482Y+991642D01*
X+2206174Y+1002137D01*
X+2212202Y+1012632D01*
X+2221424Y+1023012D01*
X+2231919Y+1030700D01*
X+2242414Y+1035618D01*
X+2252909Y+1038424D01*
X+2263404Y+1039397D01*
X+2264000Y+1039400D01*
X+2200500Y+975900D02*
X+2200717Y+970653D01*
X+2202482Y+960158D01*
X+2206174Y+949663D01*
X+2212202Y+939168D01*
X+2221424Y+928788D01*
X+2231919Y+921100D01*
X+2242414Y+916182D01*
X+2252909Y+913376D01*
X+2263404Y+912403D01*
X+2264000Y+912400D01*
X+2327500Y+975900D02*
X+2327283Y+970653D01*
X+2325518Y+960158D01*
X+2321826Y+949663D01*
X+2315798Y+939168D01*
X+2306576Y+928788D01*
X+2296081Y+921100D01*
X+2285586Y+916182D01*
X+2275091Y+913376D01*
X+2264596Y+912403D01*
X+2264000Y+912400D01*
X+2219099Y+1020801D02*
X+2308901Y+930999D01*
X+2219099Y+930999D02*
X+2308901Y+1020801D01*
X+2581500Y+975900D02*
X+2581283Y+981147D01*
X+2579518Y+991642D01*
X+2575826Y+1002137D01*
X+2569798Y+1012632D01*
X+2560576Y+1023012D01*
X+2550081Y+1030700D01*
X+2539586Y+1035618D01*
X+2529091Y+1038424D01*
X+2518596Y+1039397D01*
X+2518000Y+1039400D01*
X+2454500Y+975900D02*
X+2454717Y+981147D01*
X+2456482Y+991642D01*
X+2460174Y+1002137D01*
X+2466202Y+1012632D01*
X+2475424Y+1023012D01*
X+2485919Y+1030700D01*
X+2496414Y+1035618D01*
X+2506909Y+1038424D01*
X+2517404Y+1039397D01*
X+2518000Y+1039400D01*
X+2454500Y+975900D02*
X+2454717Y+970653D01*
X+2456482Y+960158D01*
X+2460174Y+949663D01*
X+2466202Y+939168D01*
X+2475424Y+928788D01*
X+2485919Y+921100D01*
X+2496414Y+916182D01*
X+2506909Y+913376D01*
X+2517404Y+912403D01*
X+2518000Y+912400D01*
X+2581500Y+975900D02*
X+2581283Y+970653D01*
X+2579518Y+960158D01*
X+2575826Y+949663D01*
X+2569798Y+939168D01*
X+2560576Y+928788D01*
X+2550081Y+921100D01*
X+2539586Y+916182D01*
X+2529091Y+913376D01*
X+2518596Y+912403D01*
X+2518000Y+912400D01*
X+2473099Y+1020801D02*
X+2562901Y+930999D01*
X+2473099Y+930999D02*
X+2562901Y+1020801D01*
X+973500Y+975900D02*
X+973283Y+981147D01*
X+971518Y+991642D01*
X+967826Y+1002137D01*
X+961798Y+1012632D01*
X+952576Y+1023012D01*
X+942081Y+1030700D01*
X+931586Y+1035618D01*
X+921091Y+1038424D01*
X+910596Y+1039397D01*
X+910000Y+1039400D01*
X+846500Y+975900D02*
X+846717Y+981147D01*
X+848482Y+991642D01*
X+852174Y+1002137D01*
X+858202Y+1012632D01*
X+867424Y+1023012D01*
X+877919Y+1030700D01*
X+888414Y+1035618D01*
X+898909Y+1038424D01*
X+909404Y+1039397D01*
X+910000Y+1039400D01*
X+846500Y+975900D02*
X+846717Y+970653D01*
X+848482Y+960158D01*
X+852174Y+949663D01*
X+858202Y+939168D01*
X+867424Y+928788D01*
X+877919Y+921100D01*
X+888414Y+916182D01*
X+898909Y+913376D01*
X+909404Y+912403D01*
X+910000Y+912400D01*
X+973500Y+975900D02*
X+973283Y+970653D01*
X+971518Y+960158D01*
X+967826Y+949663D01*
X+961798Y+939168D01*
X+952576Y+928788D01*
X+942081Y+921100D01*
X+931586Y+916182D01*
X+921091Y+913376D01*
X+910596Y+912403D01*
X+910000Y+912400D01*
X+865099Y+1020801D02*
X+954901Y+930999D01*
X+865099Y+930999D02*
X+954901Y+1020801D01*
X+1227500Y+975900D02*
X+1227283Y+981147D01*
X+1225518Y+991642D01*
X+1221826Y+1002137D01*
X+1215798Y+1012632D01*
X+1206576Y+1023012D01*
X+1196081Y+1030700D01*
X+1185586Y+1035618D01*
X+1175091Y+1038424D01*
X+1164596Y+1039397D01*
X+1164000Y+1039400D01*
X+1100500Y+975900D02*
X+1100717Y+981147D01*
X+1102482Y+991642D01*
X+1106174Y+1002137D01*
X+1112202Y+1012632D01*
X+1121424Y+1023012D01*
X+1131919Y+1030700D01*
X+1142414Y+1035618D01*
X+1152909Y+1038424D01*
X+1163404Y+1039397D01*
X+1164000Y+1039400D01*
X+1100500Y+975900D02*
X+1100717Y+970653D01*
X+1102482Y+960158D01*
X+1106174Y+949663D01*
X+1112202Y+939168D01*
X+1121424Y+928788D01*
X+1131919Y+921100D01*
X+1142414Y+916182D01*
X+1152909Y+913376D01*
X+1163404Y+912403D01*
X+1164000Y+912400D01*
X+1227500Y+975900D02*
X+1227283Y+970653D01*
X+1225518Y+960158D01*
X+1221826Y+949663D01*
X+1215798Y+939168D01*
X+1206576Y+928788D01*
X+1196081Y+921100D01*
X+1185586Y+916182D01*
X+1175091Y+913376D01*
X+1164596Y+912403D01*
X+1164000Y+912400D01*
X+1119099Y+1020801D02*
X+1208901Y+930999D01*
X+1119099Y+930999D02*
X+1208901Y+1020801D01*
X+1481500Y+975900D02*
X+1481283Y+981147D01*
X+1479518Y+991642D01*
X+1475826Y+1002137D01*
X+1469798Y+1012632D01*
X+1460576Y+1023012D01*
X+1450081Y+1030700D01*
X+1439586Y+1035618D01*
X+1429091Y+1038424D01*
X+1418596Y+1039397D01*
X+1418000Y+1039400D01*
X+1354500Y+975900D02*
X+1354717Y+981147D01*
X+1356482Y+991642D01*
X+1360174Y+1002137D01*
X+1366202Y+1012632D01*
X+1375424Y+1023012D01*
X+1385919Y+1030700D01*
X+1396414Y+1035618D01*
X+1406909Y+1038424D01*
X+1417404Y+1039397D01*
X+1418000Y+1039400D01*
X+1354500Y+975900D02*
X+1354717Y+970653D01*
X+1356482Y+960158D01*
X+1360174Y+949663D01*
X+1366202Y+939168D01*
X+1375424Y+928788D01*
X+1385919Y+921100D01*
X+1396414Y+916182D01*
X+1406909Y+913376D01*
X+1417404Y+912403D01*
X+1418000Y+912400D01*
X+1481500Y+975900D02*
X+1481283Y+970653D01*
X+1479518Y+960158D01*
X+1475826Y+949663D01*
X+1469798Y+939168D01*
X+1460576Y+928788D01*
X+1450081Y+921100D01*
X+1439586Y+916182D01*
X+1429091Y+913376D01*
X+1418596Y+912403D01*
X+1418000Y+912400D01*
X+1373099Y+1020801D02*
X+1462901Y+930999D01*
X+1373099Y+930999D02*
X+1462901Y+1020801D01*
X+2073500Y+1775900D02*
X+2073283Y+1781147D01*
X+2071518Y+1791642D01*
X+2067826Y+1802137D01*
X+2061798Y+1812632D01*
X+2052576Y+1823012D01*
X+2042081Y+1830700D01*
X+2031586Y+1835618D01*
X+2021091Y+1838424D01*
X+2010596Y+1839397D01*
X+2010000Y+1839400D01*
X+1946500Y+1775900D02*
X+1946717Y+1781147D01*
X+1948482Y+1791642D01*
X+1952174Y+1802137D01*
X+1958202Y+1812632D01*
X+1967424Y+1823012D01*
X+1977919Y+1830700D01*
X+1988414Y+1835618D01*
X+1998909Y+1838424D01*
X+2009404Y+1839397D01*
X+2010000Y+1839400D01*
X+1946500Y+1775900D02*
X+1946717Y+1770653D01*
X+1948482Y+1760158D01*
X+1952174Y+1749663D01*
X+1958202Y+1739168D01*
X+1967424Y+1728788D01*
X+1977919Y+1721100D01*
X+1988414Y+1716182D01*
X+1998909Y+1713376D01*
X+2009404Y+1712403D01*
X+2010000Y+1712400D01*
X+2073500Y+1775900D02*
X+2073283Y+1770653D01*
X+2071518Y+1760158D01*
X+2067826Y+1749663D01*
X+2061798Y+1739168D01*
X+2052576Y+1728788D01*
X+2042081Y+1721100D01*
X+2031586Y+1716182D01*
X+2021091Y+1713376D01*
X+2010596Y+1712403D01*
X+2010000Y+1712400D01*
X+1965099Y+1820801D02*
X+2054901Y+1730999D01*
X+1965099Y+1730999D02*
X+2054901Y+1820801D01*
X+2327500Y+1775900D02*
X+2327283Y+1781147D01*
X+2325518Y+1791642D01*
X+2321826Y+1802137D01*
X+2315798Y+1812632D01*
X+2306576Y+1823012D01*
X+2296081Y+1830700D01*
X+2285586Y+1835618D01*
X+2275091Y+1838424D01*
X+2264596Y+1839397D01*
X+2264000Y+1839400D01*
X+2200500Y+1775900D02*
X+2200717Y+1781147D01*
X+2202482Y+1791642D01*
X+2206174Y+1802137D01*
X+2212202Y+1812632D01*
X+2221424Y+1823012D01*
X+2231919Y+1830700D01*
X+2242414Y+1835618D01*
X+2252909Y+1838424D01*
X+2263404Y+1839397D01*
X+2264000Y+1839400D01*
X+2200500Y+1775900D02*
X+2200717Y+1770653D01*
X+2202482Y+1760158D01*
X+2206174Y+1749663D01*
X+2212202Y+1739168D01*
X+2221424Y+1728788D01*
X+2231919Y+1721100D01*
X+2242414Y+1716182D01*
X+2252909Y+1713376D01*
X+2263404Y+1712403D01*
X+2264000Y+1712400D01*
X+2327500Y+1775900D02*
X+2327283Y+1770653D01*
X+2325518Y+1760158D01*
X+2321826Y+1749663D01*
X+2315798Y+1739168D01*
X+2306576Y+1728788D01*
X+2296081Y+1721100D01*
X+2285586Y+1716182D01*
X+2275091Y+1713376D01*
X+2264596Y+1712403D01*
X+2264000Y+1712400D01*
X+2219099Y+1820801D02*
X+2308901Y+1730999D01*
X+2219099Y+1730999D02*
X+2308901Y+1820801D01*
X+2581500Y+1775900D02*
X+2581283Y+1781147D01*
X+2579518Y+1791642D01*
X+2575826Y+1802137D01*
X+2569798Y+1812632D01*
X+2560576Y+1823012D01*
X+2550081Y+1830700D01*
X+2539586Y+1835618D01*
X+2529091Y+1838424D01*
X+2518596Y+1839397D01*
X+2518000Y+1839400D01*
X+2454500Y+1775900D02*
X+2454717Y+1781147D01*
X+2456482Y+1791642D01*
X+2460174Y+1802137D01*
X+2466202Y+1812632D01*
X+2475424Y+1823012D01*
X+2485919Y+1830700D01*
X+2496414Y+1835618D01*
X+2506909Y+1838424D01*
X+2517404Y+1839397D01*
X+2518000Y+1839400D01*
X+2454500Y+1775900D02*
X+2454717Y+1770653D01*
X+2456482Y+1760158D01*
X+2460174Y+1749663D01*
X+2466202Y+1739168D01*
X+2475424Y+1728788D01*
X+2485919Y+1721100D01*
X+2496414Y+1716182D01*
X+2506909Y+1713376D01*
X+2517404Y+1712403D01*
X+2518000Y+1712400D01*
X+2581500Y+1775900D02*
X+2581283Y+1770653D01*
X+2579518Y+1760158D01*
X+2575826Y+1749663D01*
X+2569798Y+1739168D01*
X+2560576Y+1728788D01*
X+2550081Y+1721100D01*
X+2539586Y+1716182D01*
X+2529091Y+1713376D01*
X+2518596Y+1712403D01*
X+2518000Y+1712400D01*
X+2473099Y+1820801D02*
X+2562901Y+1730999D01*
X+2473099Y+1730999D02*
X+2562901Y+1820801D01*
X+2835500Y+1775900D02*
X+2835283Y+1781147D01*
X+2833518Y+1791642D01*
X+2829826Y+1802137D01*
X+2823798Y+1812632D01*
X+2814576Y+1823012D01*
X+2804081Y+1830700D01*
X+2793586Y+1835618D01*
X+2783091Y+1838424D01*
X+2772596Y+1839397D01*
X+2772000Y+1839400D01*
X+2708500Y+1775900D02*
X+2708717Y+1781147D01*
X+2710482Y+1791642D01*
X+2714174Y+1802137D01*
X+2720202Y+1812632D01*
X+2729424Y+1823012D01*
X+2739919Y+1830700D01*
X+2750414Y+1835618D01*
X+2760909Y+1838424D01*
X+2771404Y+1839397D01*
X+2772000Y+1839400D01*
X+2708500Y+1775900D02*
X+2708717Y+1770653D01*
X+2710482Y+1760158D01*
X+2714174Y+1749663D01*
X+2720202Y+1739168D01*
X+2729424Y+1728788D01*
X+2739919Y+1721100D01*
X+2750414Y+1716182D01*
X+2760909Y+1713376D01*
X+2771404Y+1712403D01*
X+2772000Y+1712400D01*
X+2835500Y+1775900D02*
X+2835283Y+1770653D01*
X+2833518Y+1760158D01*
X+2829826Y+1749663D01*
X+2823798Y+1739168D01*
X+2814576Y+1728788D01*
X+2804081Y+1721100D01*
X+2793586Y+1716182D01*
X+2783091Y+1713376D01*
X+2772596Y+1712403D01*
X+2772000Y+1712400D01*
X+2727099Y+1820801D02*
X+2816901Y+1730999D01*
X+2727099Y+1730999D02*
X+2816901Y+1820801D01*
X+3373500Y+1775900D02*
X+3373283Y+1781147D01*
X+3371518Y+1791642D01*
X+3367826Y+1802137D01*
X+3361798Y+1812632D01*
X+3352576Y+1823012D01*
X+3342081Y+1830700D01*
X+3331586Y+1835618D01*
X+3321091Y+1838424D01*
X+3310596Y+1839397D01*
X+3310000Y+1839400D01*
X+3246500Y+1775900D02*
X+3246717Y+1781147D01*
X+3248482Y+1791642D01*
X+3252174Y+1802137D01*
X+3258202Y+1812632D01*
X+3267424Y+1823012D01*
X+3277919Y+1830700D01*
X+3288414Y+1835618D01*
X+3298909Y+1838424D01*
X+3309404Y+1839397D01*
X+3310000Y+1839400D01*
X+3246500Y+1775900D02*
X+3246717Y+1770653D01*
X+3248482Y+1760158D01*
X+3252174Y+1749663D01*
X+3258202Y+1739168D01*
X+3267424Y+1728788D01*
X+3277919Y+1721100D01*
X+3288414Y+1716182D01*
X+3298909Y+1713376D01*
X+3309404Y+1712403D01*
X+3310000Y+1712400D01*
X+3373500Y+1775900D02*
X+3373283Y+1770653D01*
X+3371518Y+1760158D01*
X+3367826Y+1749663D01*
X+3361798Y+1739168D01*
X+3352576Y+1728788D01*
X+3342081Y+1721100D01*
X+3331586Y+1716182D01*
X+3321091Y+1713376D01*
X+3310596Y+1712403D01*
X+3310000Y+1712400D01*
X+3265099Y+1820801D02*
X+3354901Y+1730999D01*
X+3265099Y+1730999D02*
X+3354901Y+1820801D01*
X+3627500Y+1775900D02*
X+3627283Y+1781147D01*
X+3625518Y+1791642D01*
X+3621826Y+1802137D01*
X+3615798Y+1812632D01*
X+3606576Y+1823012D01*
X+3596081Y+1830700D01*
X+3585586Y+1835618D01*
X+3575091Y+1838424D01*
X+3564596Y+1839397D01*
X+3564000Y+1839400D01*
X+3500500Y+1775900D02*
X+3500717Y+1781147D01*
X+3502482Y+1791642D01*
X+3506174Y+1802137D01*
X+3512202Y+1812632D01*
X+3521424Y+1823012D01*
X+3531919Y+1830700D01*
X+3542414Y+1835618D01*
X+3552909Y+1838424D01*
X+3563404Y+1839397D01*
X+3564000Y+1839400D01*
X+3500500Y+1775900D02*
X+3500717Y+1770653D01*
X+3502482Y+1760158D01*
X+3506174Y+1749663D01*
X+3512202Y+1739168D01*
X+3521424Y+1728788D01*
X+3531919Y+1721100D01*
X+3542414Y+1716182D01*
X+3552909Y+1713376D01*
X+3563404Y+1712403D01*
X+3564000Y+1712400D01*
X+3627500Y+1775900D02*
X+3627283Y+1770653D01*
X+3625518Y+1760158D01*
X+3621826Y+1749663D01*
X+3615798Y+1739168D01*
X+3606576Y+1728788D01*
X+3596081Y+1721100D01*
X+3585586Y+1716182D01*
X+3575091Y+1713376D01*
X+3564596Y+1712403D01*
X+3564000Y+1712400D01*
X+3519099Y+1820801D02*
X+3608901Y+1730999D01*
X+3519099Y+1730999D02*
X+3608901Y+1820801D01*
X+3881500Y+1775900D02*
X+3881283Y+1781147D01*
X+3879518Y+1791642D01*
X+3875826Y+1802137D01*
X+3869798Y+1812632D01*
X+3860576Y+1823012D01*
X+3850081Y+1830700D01*
X+3839586Y+1835618D01*
X+3829091Y+1838424D01*
X+3818596Y+1839397D01*
X+3818000Y+1839400D01*
X+3754500Y+1775900D02*
X+3754717Y+1781147D01*
X+3756482Y+1791642D01*
X+3760174Y+1802137D01*
X+3766202Y+1812632D01*
X+3775424Y+1823012D01*
X+3785919Y+1830700D01*
X+3796414Y+1835618D01*
X+3806909Y+1838424D01*
X+3817404Y+1839397D01*
X+3818000Y+1839400D01*
X+3754500Y+1775900D02*
X+3754717Y+1770653D01*
X+3756482Y+1760158D01*
X+3760174Y+1749663D01*
X+3766202Y+1739168D01*
X+3775424Y+1728788D01*
X+3785919Y+1721100D01*
X+3796414Y+1716182D01*
X+3806909Y+1713376D01*
X+3817404Y+1712403D01*
X+3818000Y+1712400D01*
X+3881500Y+1775900D02*
X+3881283Y+1770653D01*
X+3879518Y+1760158D01*
X+3875826Y+1749663D01*
X+3869798Y+1739168D01*
X+3860576Y+1728788D01*
X+3850081Y+1721100D01*
X+3839586Y+1716182D01*
X+3829091Y+1713376D01*
X+3818596Y+1712403D01*
X+3818000Y+1712400D01*
X+3773099Y+1820801D02*
X+3862901Y+1730999D01*
X+3773099Y+1730999D02*
X+3862901Y+1820801D01*
X+4135500Y+1775900D02*
X+4135283Y+1781147D01*
X+4133518Y+1791642D01*
X+4129826Y+1802137D01*
X+4123798Y+1812632D01*
X+4114576Y+1823012D01*
X+4104081Y+1830700D01*
X+4093586Y+1835618D01*
X+4083091Y+1838424D01*
X+4072596Y+1839397D01*
X+4072000Y+1839400D01*
X+4008500Y+1775900D02*
X+4008717Y+1781147D01*
X+4010482Y+1791642D01*
X+4014174Y+1802137D01*
X+4020202Y+1812632D01*
X+4029424Y+1823012D01*
X+4039919Y+1830700D01*
X+4050414Y+1835618D01*
X+4060909Y+1838424D01*
X+4071404Y+1839397D01*
X+4072000Y+1839400D01*
X+4008500Y+1775900D02*
X+4008717Y+1770653D01*
X+4010482Y+1760158D01*
X+4014174Y+1749663D01*
X+4020202Y+1739168D01*
X+4029424Y+1728788D01*
X+4039919Y+1721100D01*
X+4050414Y+1716182D01*
X+4060909Y+1713376D01*
X+4071404Y+1712403D01*
X+4072000Y+1712400D01*
X+4135500Y+1775900D02*
X+4135283Y+1770653D01*
X+4133518Y+1760158D01*
X+4129826Y+1749663D01*
X+4123798Y+1739168D01*
X+4114576Y+1728788D01*
X+4104081Y+1721100D01*
X+4093586Y+1716182D01*
X+4083091Y+1713376D01*
X+4072596Y+1712403D01*
X+4072000Y+1712400D01*
X+4027099Y+1820801D02*
X+4116901Y+1730999D01*
X+4027099Y+1730999D02*
X+4116901Y+1820801D01*
X+110000Y+75900D02*
X+8610000Y+75900D01*
X+8610000Y+7565900D01*
X+110000Y+7565900D01*
X+110000Y+75900D01*
D25*
X+90950Y-1924350D02*
X+2836690Y-1924350D01*
X+2836690Y-197150D01*
X+90950Y-197150D01*
X+90950Y-1924350D01*
D51*
X+558312Y-197150D02*
X+558312Y-1924350D01*
X+1472712Y-197150D02*
X+1472712Y-1924350D01*
X+2305832Y-197150D02*
X+2305832Y-1924350D01*
X+90950Y-470200D02*
X+2836690Y-470200D01*
X+90950Y-711500D02*
X+2836690Y-711500D01*
X+90950Y-952800D02*
X+2836690Y-952800D01*
X+90950Y-1194100D02*
X+2836690Y-1194100D01*
X+90950Y-1435400D02*
X+2836690Y-1435400D01*
X+90950Y-1676700D02*
X+2836690Y-1676700D01*
D25*
X+148100Y-360980D02*
X+163340Y-376220D01*
X+224300Y-376220D01*
X+239540Y-360980D01*
X+239540Y-345740D01*
X+224300Y-330500D01*
X+163340Y-330500D01*
X+148100Y-315260D01*
X+148100Y-300020D01*
X+163340Y-284780D01*
X+224300Y-284780D01*
X+239540Y-300020D01*
X+361460Y-284780D02*
X+270020Y-376220D01*
X+270020Y-284780D02*
X+315740Y-330500D01*
X+391940Y-376220D02*
X+391940Y-284780D01*
X+437660Y-330500D01*
X+483380Y-284780D01*
X+483380Y-376220D01*
X+615460Y-360980D02*
X+630700Y-376220D01*
X+691660Y-376220D01*
X+706900Y-360980D01*
X+706900Y-345740D01*
X+691660Y-330500D01*
X+630700Y-330500D01*
X+615460Y-315260D01*
X+615460Y-300020D01*
X+630700Y-284780D01*
X+691660Y-284780D01*
X+706900Y-300020D01*
X+752620Y-284780D02*
X+813580Y-284780D01*
X+783100Y-284780D02*
X+783100Y-376220D01*
X+752620Y-376220D02*
X+813580Y-376220D01*
X+859300Y-284780D02*
X+950740Y-284780D01*
X+859300Y-376220D01*
X+950740Y-376220D01*
X+1072660Y-376220D02*
X+981220Y-376220D01*
X+981220Y-284780D01*
X+1072660Y-284780D01*
X+981220Y-330500D02*
X+1042180Y-330500D01*
X+1529860Y-376220D02*
X+1529860Y-284780D01*
X+1606060Y-284780D01*
X+1621300Y-300020D01*
X+1621300Y-315260D01*
X+1606060Y-330500D01*
X+1529860Y-330500D01*
X+1651780Y-284780D02*
X+1651780Y-376220D01*
X+1743220Y-376220D01*
X+1773700Y-376220D02*
X+1773700Y-315260D01*
X+1804180Y-284780D01*
X+1834660Y-284780D01*
X+1865140Y-315260D01*
X+1865140Y-376220D01*
X+1773700Y-345740D02*
X+1865140Y-345740D01*
X+1895620Y-284780D02*
X+1987060Y-284780D01*
X+1941340Y-284780D02*
X+1941340Y-376220D01*
X+2108980Y-376220D02*
X+2017540Y-376220D01*
X+2017540Y-284780D01*
X+2108980Y-284780D01*
X+2017540Y-330500D02*
X+2078500Y-330500D01*
X+2139460Y-376220D02*
X+2139460Y-284780D01*
X+2200420Y-284780D01*
X+2230900Y-315260D01*
X+2230900Y-345740D01*
X+2200420Y-376220D01*
X+2139460Y-376220D01*
X+2362980Y-315260D02*
X+2393460Y-284780D01*
X+2423940Y-284780D01*
X+2454420Y-315260D01*
X+2454420Y-345740D01*
X+2423940Y-376220D01*
X+2393460Y-376220D01*
X+2362980Y-345740D01*
X+2362980Y-315260D01*
X+2423940Y-345740D02*
X+2454420Y-376220D01*
X+2484900Y-284780D02*
X+2576340Y-284780D01*
X+2530620Y-284780D02*
X+2530620Y-376220D01*
X+2698260Y-284780D02*
X+2606820Y-376220D01*
X+2606820Y-284780D02*
X+2652540Y-330500D01*
D21*
X+337330Y-521000D02*
X+337330Y-648000D01*
X+273830Y-584500D02*
X+400830Y-584500D01*
D25*
X+634510Y-609900D02*
X+634510Y-559100D01*
X+647210Y-546400D01*
X+698010Y-546400D01*
X+710710Y-559100D01*
X+710710Y-609900D01*
X+698010Y-622600D01*
X+647210Y-622600D01*
X+634510Y-609900D01*
X+634510Y-622600D02*
X+710710Y-546400D01*
X+774210Y-609900D02*
X+786910Y-609900D01*
X+786910Y-622600D01*
X+774210Y-622600D01*
X+774210Y-609900D01*
X+863110Y-584500D02*
X+850410Y-571800D01*
X+850410Y-559100D01*
X+863110Y-546400D01*
X+901210Y-546400D01*
X+913910Y-559100D01*
X+913910Y-571800D01*
X+901210Y-584500D01*
X+863110Y-584500D01*
X+850410Y-597200D01*
X+850410Y-609900D01*
X+863110Y-622600D01*
X+901210Y-622600D01*
X+913910Y-609900D01*
X+913910Y-597200D01*
X+901210Y-584500D01*
X+1015510Y-546400D02*
X+952010Y-546400D01*
X+952010Y-571800D01*
X+1002810Y-571800D01*
X+1015510Y-584500D01*
X+1015510Y-609900D01*
X+1002810Y-622600D01*
X+964710Y-622600D01*
X+952010Y-609900D01*
X+1040910Y-622600D02*
X+1040910Y-571800D01*
X+1040910Y-584500D02*
X+1053610Y-571800D01*
X+1079010Y-597200D01*
X+1104410Y-571800D01*
X+1117110Y-584500D01*
X+1117110Y-622600D01*
X+1142510Y-622600D02*
X+1142510Y-571800D01*
X+1142510Y-584500D02*
X+1155210Y-571800D01*
X+1180610Y-597200D01*
X+1206010Y-571800D01*
X+1218710Y-584500D01*
X+1218710Y-622600D01*
X+1637810Y-546400D02*
X+1561610Y-622600D01*
X+1561610Y-546400D02*
X+1599710Y-584500D01*
X+1739410Y-622600D02*
X+1663210Y-622600D01*
X+1663210Y-546400D01*
X+1739410Y-546400D01*
X+1663210Y-584500D02*
X+1714010Y-584500D01*
X+1764810Y-609900D02*
X+1777510Y-622600D01*
X+1828310Y-622600D01*
X+1841010Y-609900D01*
X+1841010Y-597200D01*
X+1828310Y-584500D01*
X+1777510Y-584500D01*
X+1764810Y-571800D01*
X+1764810Y-559100D01*
X+1777510Y-546400D01*
X+1828310Y-546400D01*
X+1841010Y-559100D01*
X+2420130Y-559100D02*
X+2432830Y-546400D01*
X+2470930Y-546400D01*
X+2483630Y-559100D01*
X+2483630Y-571800D01*
X+2470930Y-584500D01*
X+2432830Y-584500D01*
X+2420130Y-597200D01*
X+2420130Y-622600D01*
X+2483630Y-622600D01*
D21*
X+292429Y-780899D02*
X+382231Y-870701D01*
X+292429Y-870701D02*
X+382231Y-780899D01*
D25*
X+634510Y-851200D02*
X+634510Y-800400D01*
X+647210Y-787700D01*
X+698010Y-787700D01*
X+710710Y-800400D01*
X+710710Y-851200D01*
X+698010Y-863900D01*
X+647210Y-863900D01*
X+634510Y-851200D01*
X+634510Y-863900D02*
X+710710Y-787700D01*
X+774210Y-851200D02*
X+786910Y-851200D01*
X+786910Y-863900D01*
X+774210Y-863900D01*
X+774210Y-851200D01*
X+913910Y-787700D02*
X+850410Y-787700D01*
X+850410Y-813100D01*
X+901210Y-813100D01*
X+913910Y-825800D01*
X+913910Y-851200D01*
X+901210Y-863900D01*
X+863110Y-863900D01*
X+850410Y-851200D01*
X+939310Y-851200D02*
X+939310Y-800400D01*
X+952010Y-787700D01*
X+1002810Y-787700D01*
X+1015510Y-800400D01*
X+1015510Y-851200D01*
X+1002810Y-863900D01*
X+952010Y-863900D01*
X+939310Y-851200D01*
X+939310Y-863900D02*
X+1015510Y-787700D01*
X+1066310Y-825800D02*
X+1053610Y-813100D01*
X+1053610Y-800400D01*
X+1066310Y-787700D01*
X+1104410Y-787700D01*
X+1117110Y-800400D01*
X+1117110Y-813100D01*
X+1104410Y-825800D01*
X+1066310Y-825800D01*
X+1053610Y-838500D01*
X+1053610Y-851200D01*
X+1066310Y-863900D01*
X+1104410Y-863900D01*
X+1117110Y-851200D01*
X+1117110Y-838500D01*
X+1104410Y-825800D01*
X+1142510Y-863900D02*
X+1142510Y-813100D01*
X+1142510Y-825800D02*
X+1155210Y-813100D01*
X+1180610Y-838500D01*
X+1206010Y-813100D01*
X+1218710Y-825800D01*
X+1218710Y-863900D01*
X+1244110Y-863900D02*
X+1244110Y-813100D01*
X+1244110Y-825800D02*
X+1256810Y-813100D01*
X+1282210Y-838500D01*
X+1307610Y-813100D01*
X+1320310Y-825800D01*
X+1320310Y-863900D01*
X+1637810Y-787700D02*
X+1561610Y-863900D01*
X+1561610Y-787700D02*
X+1599710Y-825800D01*
X+1739410Y-863900D02*
X+1663210Y-863900D01*
X+1663210Y-787700D01*
X+1739410Y-787700D01*
X+1663210Y-825800D02*
X+1714010Y-825800D01*
X+1764810Y-851200D02*
X+1777510Y-863900D01*
X+1828310Y-863900D01*
X+1841010Y-851200D01*
X+1841010Y-838500D01*
X+1828310Y-825800D01*
X+1777510Y-825800D01*
X+1764810Y-813100D01*
X+1764810Y-800400D01*
X+1777510Y-787700D01*
X+1828310Y-787700D01*
X+1841010Y-800400D01*
X+2420130Y-800400D02*
X+2432830Y-787700D01*
X+2470930Y-787700D01*
X+2483630Y-800400D01*
X+2483630Y-813100D01*
X+2470930Y-825800D01*
X+2483630Y-838500D01*
X+2483630Y-851200D01*
X+2470930Y-863900D01*
X+2432830Y-863900D01*
X+2420130Y-851200D01*
X+2445530Y-825800D02*
X+2470930Y-825800D01*
X+2521730Y-800400D02*
X+2534430Y-787700D01*
X+2572530Y-787700D01*
X+2585230Y-800400D01*
X+2585230Y-813100D01*
X+2572530Y-825800D01*
X+2534430Y-825800D01*
X+2521730Y-838500D01*
X+2521730Y-863900D01*
X+2585230Y-863900D01*
D21*
X+337330Y-1003600D02*
X+337330Y-1130600D01*
X+273830Y-1067100D02*
X+400830Y-1067100D01*
X+292429Y-1022199D02*
X+382231Y-1112001D01*
X+292429Y-1112001D02*
X+382231Y-1022199D01*
D25*
X+634510Y-1092500D02*
X+634510Y-1041700D01*
X+647210Y-1029000D01*
X+698010Y-1029000D01*
X+710710Y-1041700D01*
X+710710Y-1092500D01*
X+698010Y-1105200D01*
X+647210Y-1105200D01*
X+634510Y-1092500D01*
X+634510Y-1105200D02*
X+710710Y-1029000D01*
X+774210Y-1092500D02*
X+786910Y-1092500D01*
X+786910Y-1105200D01*
X+774210Y-1105200D01*
X+774210Y-1092500D01*
X+850410Y-1029000D02*
X+913910Y-1029000D01*
X+913910Y-1041700D01*
X+850410Y-1105200D01*
X+1015510Y-1041700D02*
X+1002810Y-1029000D01*
X+964710Y-1029000D01*
X+952010Y-1041700D01*
X+952010Y-1092500D01*
X+964710Y-1105200D01*
X+1002810Y-1105200D01*
X+1015510Y-1092500D01*
X+1015510Y-1079800D01*
X+1002810Y-1067100D01*
X+952010Y-1067100D01*
X+1053610Y-1041700D02*
X+1066310Y-1029000D01*
X+1104410Y-1029000D01*
X+1117110Y-1041700D01*
X+1117110Y-1054400D01*
X+1104410Y-1067100D01*
X+1066310Y-1067100D01*
X+1053610Y-1079800D01*
X+1053610Y-1105200D01*
X+1117110Y-1105200D01*
X+1142510Y-1105200D02*
X+1142510Y-1054400D01*
X+1142510Y-1067100D02*
X+1155210Y-1054400D01*
X+1180610Y-1079800D01*
X+1206010Y-1054400D01*
X+1218710Y-1067100D01*
X+1218710Y-1105200D01*
X+1244110Y-1105200D02*
X+1244110Y-1054400D01*
X+1244110Y-1067100D02*
X+1256810Y-1054400D01*
X+1282210Y-1079800D01*
X+1307610Y-1054400D01*
X+1320310Y-1067100D01*
X+1320310Y-1105200D01*
X+1637810Y-1029000D02*
X+1561610Y-1105200D01*
X+1561610Y-1029000D02*
X+1599710Y-1067100D01*
X+1739410Y-1105200D02*
X+1663210Y-1105200D01*
X+1663210Y-1029000D01*
X+1739410Y-1029000D01*
X+1663210Y-1067100D02*
X+1714010Y-1067100D01*
X+1764810Y-1092500D02*
X+1777510Y-1105200D01*
X+1828310Y-1105200D01*
X+1841010Y-1092500D01*
X+1841010Y-1079800D01*
X+1828310Y-1067100D01*
X+1777510Y-1067100D01*
X+1764810Y-1054400D01*
X+1764810Y-1041700D01*
X+1777510Y-1029000D01*
X+1828310Y-1029000D01*
X+1841010Y-1041700D01*
X+2432830Y-1067100D02*
X+2420130Y-1054400D01*
X+2420130Y-1041700D01*
X+2432830Y-1029000D01*
X+2470930Y-1029000D01*
X+2483630Y-1041700D01*
X+2483630Y-1054400D01*
X+2470930Y-1067100D01*
X+2432830Y-1067100D01*
X+2420130Y-1079800D01*
X+2420130Y-1092500D01*
X+2432830Y-1105200D01*
X+2470930Y-1105200D01*
X+2483630Y-1092500D01*
X+2483630Y-1079800D01*
X+2470930Y-1067100D01*
X+2521730Y-1041700D02*
X+2534430Y-1029000D01*
X+2572530Y-1029000D01*
X+2585230Y-1041700D01*
X+2585230Y-1054400D01*
X+2572530Y-1067100D01*
X+2585230Y-1079800D01*
X+2585230Y-1092500D01*
X+2572530Y-1105200D01*
X+2534430Y-1105200D01*
X+2521730Y-1092500D01*
X+2547130Y-1067100D02*
X+2572530Y-1067100D01*
D21*
X+400830Y-1308400D02*
X+400613Y-1303153D01*
X+398848Y-1292658D01*
X+395156Y-1282163D01*
X+389128Y-1271668D01*
X+379906Y-1261288D01*
X+369411Y-1253600D01*
X+358916Y-1248682D01*
X+348421Y-1245876D01*
X+337926Y-1244903D01*
X+337330Y-1244900D01*
X+273830Y-1308400D02*
X+274047Y-1303153D01*
X+275812Y-1292658D01*
X+279504Y-1282163D01*
X+285532Y-1271668D01*
X+294754Y-1261288D01*
X+305249Y-1253600D01*
X+315744Y-1248682D01*
X+326239Y-1245876D01*
X+336734Y-1244903D01*
X+337330Y-1244900D01*
X+273830Y-1308400D02*
X+274047Y-1313647D01*
X+275812Y-1324142D01*
X+279504Y-1334637D01*
X+285532Y-1345132D01*
X+294754Y-1355512D01*
X+305249Y-1363200D01*
X+315744Y-1368118D01*
X+326239Y-1370924D01*
X+336734Y-1371897D01*
X+337330Y-1371900D01*
X+400830Y-1308400D02*
X+400613Y-1313647D01*
X+398848Y-1324142D01*
X+395156Y-1334637D01*
X+389128Y-1345132D01*
X+379906Y-1355512D01*
X+369411Y-1363200D01*
X+358916Y-1368118D01*
X+348421Y-1370924D01*
X+337926Y-1371897D01*
X+337330Y-1371900D01*
X+337330Y-1244900D02*
X+337330Y-1371900D01*
X+273830Y-1308400D02*
X+400830Y-1308400D01*
D25*
X+634510Y-1333800D02*
X+634510Y-1283000D01*
X+647210Y-1270300D01*
X+698010Y-1270300D01*
X+710710Y-1283000D01*
X+710710Y-1333800D01*
X+698010Y-1346500D01*
X+647210Y-1346500D01*
X+634510Y-1333800D01*
X+634510Y-1346500D02*
X+710710Y-1270300D01*
X+774210Y-1333800D02*
X+786910Y-1333800D01*
X+786910Y-1346500D01*
X+774210Y-1346500D01*
X+774210Y-1333800D01*
X+913910Y-1295700D02*
X+901210Y-1308400D01*
X+863110Y-1308400D01*
X+850410Y-1295700D01*
X+850410Y-1283000D01*
X+863110Y-1270300D01*
X+901210Y-1270300D01*
X+913910Y-1283000D01*
X+913910Y-1333800D01*
X+901210Y-1346500D01*
X+863110Y-1346500D01*
X+1015510Y-1283000D02*
X+1002810Y-1270300D01*
X+964710Y-1270300D01*
X+952010Y-1283000D01*
X+952010Y-1333800D01*
X+964710Y-1346500D01*
X+1002810Y-1346500D01*
X+1015510Y-1333800D01*
X+1015510Y-1321100D01*
X+1002810Y-1308400D01*
X+952010Y-1308400D01*
X+1117110Y-1270300D02*
X+1053610Y-1270300D01*
X+1053610Y-1295700D01*
X+1104410Y-1295700D01*
X+1117110Y-1308400D01*
X+1117110Y-1333800D01*
X+1104410Y-1346500D01*
X+1066310Y-1346500D01*
X+1053610Y-1333800D01*
X+1155210Y-1283000D02*
X+1167910Y-1270300D01*
X+1206010Y-1270300D01*
X+1218710Y-1283000D01*
X+1218710Y-1295700D01*
X+1206010Y-1308400D01*
X+1167910Y-1308400D01*
X+1155210Y-1321100D01*
X+1155210Y-1346500D01*
X+1218710Y-1346500D01*
X+1244110Y-1346500D02*
X+1244110Y-1295700D01*
X+1244110Y-1308400D02*
X+1256810Y-1295700D01*
X+1282210Y-1321100D01*
X+1307610Y-1295700D01*
X+1320310Y-1308400D01*
X+1320310Y-1346500D01*
X+1345710Y-1346500D02*
X+1345710Y-1295700D01*
X+1345710Y-1308400D02*
X+1358410Y-1295700D01*
X+1383810Y-1321100D01*
X+1409210Y-1295700D01*
X+1421910Y-1308400D01*
X+1421910Y-1346500D01*
X+1637810Y-1270300D02*
X+1561610Y-1346500D01*
X+1561610Y-1270300D02*
X+1599710Y-1308400D01*
X+1739410Y-1346500D02*
X+1663210Y-1346500D01*
X+1663210Y-1270300D01*
X+1739410Y-1270300D01*
X+1663210Y-1308400D02*
X+1714010Y-1308400D01*
X+1764810Y-1333800D02*
X+1777510Y-1346500D01*
X+1828310Y-1346500D01*
X+1841010Y-1333800D01*
X+1841010Y-1321100D01*
X+1828310Y-1308400D01*
X+1777510Y-1308400D01*
X+1764810Y-1295700D01*
X+1764810Y-1283000D01*
X+1777510Y-1270300D01*
X+1828310Y-1270300D01*
X+1841010Y-1283000D01*
X+2483630Y-1321100D02*
X+2407430Y-1321100D01*
X+2458230Y-1270300D01*
X+2458230Y-1346500D01*
D21*
X+400830Y-1549700D02*
X+400613Y-1544453D01*
X+398848Y-1533958D01*
X+395156Y-1523463D01*
X+389128Y-1512968D01*
X+379906Y-1502588D01*
X+369411Y-1494900D01*
X+358916Y-1489982D01*
X+348421Y-1487176D01*
X+337926Y-1486203D01*
X+337330Y-1486200D01*
X+273830Y-1549700D02*
X+274047Y-1544453D01*
X+275812Y-1533958D01*
X+279504Y-1523463D01*
X+285532Y-1512968D01*
X+294754Y-1502588D01*
X+305249Y-1494900D01*
X+315744Y-1489982D01*
X+326239Y-1487176D01*
X+336734Y-1486203D01*
X+337330Y-1486200D01*
X+273830Y-1549700D02*
X+274047Y-1554947D01*
X+275812Y-1565442D01*
X+279504Y-1575937D01*
X+285532Y-1586432D01*
X+294754Y-1596812D01*
X+305249Y-1604500D01*
X+315744Y-1609418D01*
X+326239Y-1612224D01*
X+336734Y-1613197D01*
X+337330Y-1613200D01*
X+400830Y-1549700D02*
X+400613Y-1554947D01*
X+398848Y-1565442D01*
X+395156Y-1575937D01*
X+389128Y-1586432D01*
X+379906Y-1596812D01*
X+369411Y-1604500D01*
X+358916Y-1609418D01*
X+348421Y-1612224D01*
X+337926Y-1613197D01*
X+337330Y-1613200D01*
X+292429Y-1504799D02*
X+382231Y-1594601D01*
X+292429Y-1594601D02*
X+382231Y-1504799D01*
D25*
X+659910Y-1537000D02*
X+685310Y-1511600D01*
X+685310Y-1587800D01*
X+774210Y-1575100D02*
X+786910Y-1575100D01*
X+786910Y-1587800D01*
X+774210Y-1587800D01*
X+774210Y-1575100D01*
X+837710Y-1575100D02*
X+837710Y-1524300D01*
X+850410Y-1511600D01*
X+901210Y-1511600D01*
X+913910Y-1524300D01*
X+913910Y-1575100D01*
X+901210Y-1587800D01*
X+850410Y-1587800D01*
X+837710Y-1575100D01*
X+837710Y-1587800D02*
X+913910Y-1511600D01*
X+964710Y-1537000D02*
X+990110Y-1511600D01*
X+990110Y-1587800D01*
X+1117110Y-1524300D02*
X+1104410Y-1511600D01*
X+1066310Y-1511600D01*
X+1053610Y-1524300D01*
X+1053610Y-1575100D01*
X+1066310Y-1587800D01*
X+1104410Y-1587800D01*
X+1117110Y-1575100D01*
X+1117110Y-1562400D01*
X+1104410Y-1549700D01*
X+1053610Y-1549700D01*
X+1142510Y-1587800D02*
X+1142510Y-1537000D01*
X+1142510Y-1549700D02*
X+1155210Y-1537000D01*
X+1180610Y-1562400D01*
X+1206010Y-1537000D01*
X+1218710Y-1549700D01*
X+1218710Y-1587800D01*
X+1244110Y-1587800D02*
X+1244110Y-1537000D01*
X+1244110Y-1549700D02*
X+1256810Y-1537000D01*
X+1282210Y-1562400D01*
X+1307610Y-1537000D01*
X+1320310Y-1549700D01*
X+1320310Y-1587800D01*
X+1637810Y-1511600D02*
X+1561610Y-1587800D01*
X+1561610Y-1511600D02*
X+1599710Y-1549700D01*
X+1739410Y-1587800D02*
X+1663210Y-1587800D01*
X+1663210Y-1511600D01*
X+1739410Y-1511600D01*
X+1663210Y-1549700D02*
X+1714010Y-1549700D01*
X+1764810Y-1575100D02*
X+1777510Y-1587800D01*
X+1828310Y-1587800D01*
X+1841010Y-1575100D01*
X+1841010Y-1562400D01*
X+1828310Y-1549700D01*
X+1777510Y-1549700D01*
X+1764810Y-1537000D01*
X+1764810Y-1524300D01*
X+1777510Y-1511600D01*
X+1828310Y-1511600D01*
X+1841010Y-1524300D01*
X+2483630Y-1562400D02*
X+2407430Y-1562400D01*
X+2458230Y-1511600D01*
X+2458230Y-1587800D01*
X+2509030Y-1575100D02*
X+2509030Y-1524300D01*
X+2521730Y-1511600D01*
X+2572530Y-1511600D01*
X+2585230Y-1524300D01*
X+2585230Y-1575100D01*
X+2572530Y-1587800D01*
X+2521730Y-1587800D01*
X+2509030Y-1575100D01*
X+2509030Y-1587800D02*
X+2585230Y-1511600D01*
D21*
X+400830Y-1791000D02*
X+400613Y-1785753D01*
X+398848Y-1775258D01*
X+395156Y-1764763D01*
X+389128Y-1754268D01*
X+379906Y-1743888D01*
X+369411Y-1736200D01*
X+358916Y-1731282D01*
X+348421Y-1728476D01*
X+337926Y-1727503D01*
X+337330Y-1727500D01*
X+273830Y-1791000D02*
X+274047Y-1785753D01*
X+275812Y-1775258D01*
X+279504Y-1764763D01*
X+285532Y-1754268D01*
X+294754Y-1743888D01*
X+305249Y-1736200D01*
X+315744Y-1731282D01*
X+326239Y-1728476D01*
X+336734Y-1727503D01*
X+337330Y-1727500D01*
X+273830Y-1791000D02*
X+274047Y-1796247D01*
X+275812Y-1806742D01*
X+279504Y-1817237D01*
X+285532Y-1827732D01*
X+294754Y-1838112D01*
X+305249Y-1845800D01*
X+315744Y-1850718D01*
X+326239Y-1853524D01*
X+336734Y-1854497D01*
X+337330Y-1854500D01*
X+400830Y-1791000D02*
X+400613Y-1796247D01*
X+398848Y-1806742D01*
X+395156Y-1817237D01*
X+389128Y-1827732D01*
X+379906Y-1838112D01*
X+369411Y-1845800D01*
X+358916Y-1850718D01*
X+348421Y-1853524D01*
X+337926Y-1854497D01*
X+337330Y-1854500D01*
X+337330Y-1727500D02*
X+337330Y-1854500D01*
X+273830Y-1791000D02*
X+400830Y-1791000D01*
X+400613Y-1785753D01*
X+398848Y-1775258D01*
X+395156Y-1764763D01*
X+389128Y-1754268D01*
X+379906Y-1743888D01*
X+369411Y-1736200D01*
X+358916Y-1731282D01*
X+348421Y-1728476D01*
X+337926Y-1727503D01*
X+337330Y-1727500D01*
X+273830Y-1791000D02*
X+274047Y-1785753D01*
X+275812Y-1775258D01*
X+279504Y-1764763D01*
X+285532Y-1754268D01*
X+294754Y-1743888D01*
X+305249Y-1736200D01*
X+315744Y-1731282D01*
X+326239Y-1728476D01*
X+336734Y-1727503D01*
X+337330Y-1727500D01*
X+273830Y-1791000D02*
X+274047Y-1796247D01*
X+275812Y-1806742D01*
X+279504Y-1817237D01*
X+285532Y-1827732D01*
X+294754Y-1838112D01*
X+305249Y-1845800D01*
X+315744Y-1850718D01*
X+326239Y-1853524D01*
X+336734Y-1854497D01*
X+337330Y-1854500D01*
X+400830Y-1791000D02*
X+400613Y-1796247D01*
X+398848Y-1806742D01*
X+395156Y-1817237D01*
X+389128Y-1827732D01*
X+379906Y-1838112D01*
X+369411Y-1845800D01*
X+358916Y-1850718D01*
X+348421Y-1853524D01*
X+337926Y-1854497D01*
X+337330Y-1854500D01*
X+292429Y-1746099D02*
X+382231Y-1835901D01*
X+292429Y-1835901D02*
X+382231Y-1746099D01*
D25*
X+659910Y-1778300D02*
X+685310Y-1752900D01*
X+685310Y-1829100D01*
X+774210Y-1816400D02*
X+786910Y-1816400D01*
X+786910Y-1829100D01*
X+774210Y-1829100D01*
X+774210Y-1816400D01*
X+913910Y-1752900D02*
X+850410Y-1752900D01*
X+850410Y-1778300D01*
X+901210Y-1778300D01*
X+913910Y-1791000D01*
X+913910Y-1816400D01*
X+901210Y-1829100D01*
X+863110Y-1829100D01*
X+850410Y-1816400D01*
X+952010Y-1765600D02*
X+964710Y-1752900D01*
X+1002810Y-1752900D01*
X+1015510Y-1765600D01*
X+1015510Y-1778300D01*
X+1002810Y-1791000D01*
X+964710Y-1791000D01*
X+952010Y-1803700D01*
X+952010Y-1829100D01*
X+1015510Y-1829100D01*
X+1117110Y-1803700D02*
X+1040910Y-1803700D01*
X+1091710Y-1752900D01*
X+1091710Y-1829100D01*
X+1142510Y-1829100D02*
X+1142510Y-1778300D01*
X+1142510Y-1791000D02*
X+1155210Y-1778300D01*
X+1180610Y-1803700D01*
X+1206010Y-1778300D01*
X+1218710Y-1791000D01*
X+1218710Y-1829100D01*
X+1244110Y-1829100D02*
X+1244110Y-1778300D01*
X+1244110Y-1791000D02*
X+1256810Y-1778300D01*
X+1282210Y-1803700D01*
X+1307610Y-1778300D01*
X+1320310Y-1791000D01*
X+1320310Y-1829100D01*
X+1637810Y-1752900D02*
X+1561610Y-1829100D01*
X+1561610Y-1752900D02*
X+1599710Y-1791000D01*
X+1739410Y-1829100D02*
X+1663210Y-1829100D01*
X+1663210Y-1752900D01*
X+1739410Y-1752900D01*
X+1663210Y-1791000D02*
X+1714010Y-1791000D01*
X+1764810Y-1816400D02*
X+1777510Y-1829100D01*
X+1828310Y-1829100D01*
X+1841010Y-1816400D01*
X+1841010Y-1803700D01*
X+1828310Y-1791000D01*
X+1777510Y-1791000D01*
X+1764810Y-1778300D01*
X+1764810Y-1765600D01*
X+1777510Y-1752900D01*
X+1828310Y-1752900D01*
X+1841010Y-1765600D01*
X+2432830Y-1778300D02*
X+2458230Y-1752900D01*
X+2458230Y-1829100D01*
X+2509030Y-1816400D02*
X+2509030Y-1765600D01*
X+2521730Y-1752900D01*
X+2572530Y-1752900D01*
X+2585230Y-1765600D01*
X+2585230Y-1816400D01*
X+2572530Y-1829100D01*
X+2521730Y-1829100D01*
X+2509030Y-1816400D01*
X+2509030Y-1829100D02*
X+2585230Y-1752900D01*
M02*
