M48
METRIC,TZ
T01C0.5080
T02C1.0160
T03C0.7620
T04C1.5240
T05C0.8500
T06C0.9650
%
T01
X+62100Y+71859
X+67807Y+71806
X+72369Y+63261
X+72396Y+54296
X+65737Y+51790
X+84428Y+51790
X+64087Y+62120
X+25853Y+62120
X+26337Y+49073
X+26337Y+43653
X+18579Y+34513
X+14328Y+34566
X+14328Y+38020
X+14274Y+42218
X+12680Y+42377
X+8961Y+42377
X+6500Y+56459
X+28834Y+56459
X+40720Y+20759
X+44930Y+20801
X+27730Y+15010
X+24426Y+14959
X+27730Y+9776
X+41127Y+7473
X+53060Y+7473
X+50199Y+9183
X+50164Y+17068
X+72396Y+18803
X+72369Y+27767
X+16904Y+14959
X+13100Y+16759
X+13100Y+21173
T02
X+16560Y+36759
X+19100Y+36759
X+21640Y+36759
X+68100Y+61299
X+68100Y+58759
X+68100Y+56219
X+72100Y+40219
X+72100Y+42759
X+72100Y+46759
X+72100Y+49299
X+68100Y+25805
X+68100Y+23265
X+68100Y+20725
X+72100Y+4725
X+72100Y+7265
X+72100Y+11265
X+72100Y+13805
X+53100Y+9759
X+55640Y+9759
X+58180Y+9759
X+42100Y+9759
X+44640Y+9759
X+47180Y+9759
X+31100Y+9759
X+33640Y+9759
X+36180Y+9759
X+20100Y+9759
X+22640Y+9759
X+25180Y+9759
X+9100Y+9759
X+11640Y+9759
X+14180Y+9759
X+20100Y+17759
X+22640Y+17759
X+25180Y+17759
X+27720Y+17759
X+33100Y+17759
X+35640Y+17759
X+38180Y+17759
X+40720Y+17759
T03
X+25100Y+36759
X+27640Y+36759
X+25100Y+29759
X+27640Y+29759
X+17100Y+22599
X+17100Y+32759
X+21100Y+32759
X+21100Y+22599
X+79100Y+69823
X+79100Y+67791
X+79100Y+65759
X+74100Y+65759
X+63940Y+65759
X+74260Y+68759
X+64100Y+68759
X+67100Y+49919
X+67100Y+39759
X+79100Y+34329
X+79100Y+32297
X+79100Y+30265
X+74100Y+30265
X+63940Y+30265
X+74260Y+33265
X+64100Y+33265
X+67100Y+14425
X+67100Y+4265
X+48318Y+21009
X+50350Y+21009
X+52382Y+21009
X+52350Y+25849
X+52350Y+36009
X+55350Y+36009
X+55350Y+25849
X+58350Y+36009
X+58350Y+25849
X+8100Y+52759
X+10640Y+52759
X+13180Y+52759
X+15720Y+52759
X+18260Y+52759
X+20800Y+52759
X+23340Y+52759
X+25880Y+52759
X+28420Y+52759
X+30960Y+52759
X+33500Y+52759
X+36040Y+52759
X+38580Y+52759
X+41120Y+52759
X+43660Y+52759
X+46200Y+52759
X+48740Y+52759
X+51280Y+52759
X+53820Y+52759
X+56360Y+52759
X+56360Y+67999
X+53820Y+67999
X+51280Y+67999
X+48740Y+67999
X+46200Y+67999
X+43660Y+67999
X+41120Y+67999
X+38580Y+67999
X+36040Y+67999
X+33500Y+67999
X+30960Y+67999
X+28420Y+67999
X+25880Y+67999
X+23340Y+67999
X+20800Y+67999
X+18260Y+67999
X+15720Y+67999
X+13180Y+67999
X+10640Y+67999
X+8100Y+67999
X+40180Y+47759
X+35100Y+47759
X+44560Y+47759
X+47100Y+47759
X+30640Y+47759
X+28100Y+47759
X+24260Y+47759
X+14100Y+47759
T04
X+9100Y+36759
X+9100Y+31755
X+79100Y+46759
X+79100Y+41755
X+79100Y+54755
X+79100Y+59759
X+79100Y+11265
X+79100Y+6261
X+79100Y+19261
X+79100Y+24265
T05
X+42850Y+30009
X+47850Y+30009
T06
X+58600Y+43259
X+52100Y+43259
X+58600Y+47759
X+52100Y+47759
M30
